<svg id="svg" version="1.1" xmlns="http://www.w3.org/2000/svg" xmlns:xlink="http://www.w3.org/1999/xlink" width="400" height="400" viewBox="0, 0, 400,400"><g id="svgg"><path id="path0" d="M179.200 31.400 C 179.200 31.853,178.711 32.000,177.200 32.000 C 175.467 32.000,175.200 32.107,175.200 32.800 C 175.200 33.503,174.933 33.600,173.000 33.600 C 171.067 33.600,170.800 33.697,170.800 34.400 C 170.800 35.103,170.533 35.200,168.600 35.200 C 166.911 35.200,166.400 35.339,166.400 35.800 C 166.400 36.130,166.130 36.400,165.800 36.400 C 165.467 36.400,165.200 36.756,165.200 37.200 C 165.200 37.848,164.933 38.000,163.800 38.000 C 162.684 38.000,162.400 38.157,162.400 38.771 C 162.400 39.467,162.184 39.520,160.200 39.315 C 158.148 39.103,158.000 39.146,158.000 39.944 C 158.000 40.656,157.764 40.800,156.600 40.800 C 155.622 40.800,155.200 40.981,155.200 41.400 C 155.200 41.804,154.796 42.000,153.963 42.000 C 153.062 42.000,152.668 42.217,152.516 42.800 C 152.352 43.427,151.970 43.600,150.753 43.600 C 149.467 43.600,149.200 43.737,149.200 44.400 C 149.200 44.844,148.933 45.200,148.600 45.200 C 148.270 45.200,148.000 45.470,148.000 45.800 C 148.000 46.130,147.730 46.400,147.400 46.400 C 147.067 46.400,146.800 46.756,146.800 47.200 C 146.800 47.867,146.533 48.000,145.200 48.000 C 143.926 48.000,143.600 48.147,143.600 48.720 C 143.600 49.307,143.342 49.409,142.200 49.276 C 140.991 49.135,140.800 49.227,140.800 49.956 C 140.800 50.654,140.558 50.800,139.400 50.800 C 138.067 50.800,138.000 50.867,138.000 52.200 L 138.000 53.600 135.800 53.600 C 133.867 53.600,133.600 53.697,133.600 54.400 C 133.600 54.844,133.333 55.200,133.000 55.200 C 132.670 55.200,132.400 55.543,132.400 55.962 C 132.400 56.620,132.182 56.695,130.800 56.509 C 129.367 56.317,129.200 56.383,129.200 57.147 C 129.200 57.855,128.962 58.000,127.800 58.000 C 126.822 58.000,126.400 58.181,126.400 58.600 C 126.400 59.022,125.973 59.200,124.958 59.200 L 123.516 59.200 123.669 60.806 L 123.822 62.412 122.411 62.306 C 121.252 62.219,120.979 62.346,120.883 63.018 C 120.785 63.699,120.535 63.808,119.383 63.674 C 118.192 63.535,118.000 63.629,118.000 64.356 C 118.000 65.054,117.758 65.200,116.600 65.200 C 115.622 65.200,115.200 65.381,115.200 65.800 C 115.200 66.233,114.756 66.400,113.600 66.400 C 112.267 66.400,112.000 66.533,112.000 67.200 C 112.000 67.848,111.733 68.000,110.600 68.000 C 109.622 68.000,109.200 68.181,109.200 68.600 C 109.200 68.930,108.930 69.200,108.600 69.200 C 108.267 69.200,108.000 69.556,108.000 70.000 C 108.000 70.444,107.733 70.800,107.400 70.800 C 107.058 70.800,106.800 71.159,106.800 71.635 C 106.800 72.382,106.638 72.443,105.266 72.211 C 103.852 71.972,103.734 72.024,103.766 72.868 C 103.796 73.686,103.640 73.770,102.300 73.661 C 101.009 73.556,100.800 73.654,100.800 74.369 C 100.800 75.052,100.551 75.200,99.400 75.200 C 98.319 75.200,98.000 75.364,98.000 75.920 C 98.000 76.507,97.742 76.609,96.600 76.476 C 95.391 76.335,95.200 76.427,95.200 77.156 C 95.200 77.620,94.951 78.000,94.647 78.000 C 94.342 78.000,94.001 78.352,93.889 78.782 C 93.718 79.435,93.447 79.525,92.242 79.329 C 90.964 79.122,90.800 79.192,90.800 79.948 C 90.800 80.655,90.562 80.800,89.400 80.800 C 88.422 80.800,88.000 80.981,88.000 81.400 C 88.000 81.819,87.578 82.000,86.600 82.000 C 85.467 82.000,85.200 82.152,85.200 82.800 C 85.200 83.333,84.933 83.600,84.400 83.600 C 83.867 83.600,83.600 83.867,83.600 84.400 C 83.600 85.048,83.333 85.200,82.200 85.200 C 81.222 85.200,80.800 85.381,80.800 85.800 C 80.800 86.133,80.444 86.400,80.000 86.400 C 79.467 86.400,79.200 86.667,79.200 87.200 C 79.200 87.848,78.933 88.000,77.800 88.000 C 76.822 88.000,76.400 88.181,76.400 88.600 C 76.400 88.930,76.130 89.200,75.800 89.200 C 75.467 89.200,75.200 89.556,75.200 90.000 C 75.200 90.533,74.933 90.800,74.400 90.800 C 73.861 90.800,73.600 91.067,73.600 91.618 C 73.600 92.336,73.429 92.404,72.200 92.174 C 70.959 91.941,70.800 92.007,70.800 92.755 C 70.800 93.239,70.544 93.600,70.200 93.600 C 69.867 93.600,69.600 93.956,69.600 94.400 C 69.600 94.933,69.333 95.200,68.800 95.200 C 68.356 95.200,68.000 95.467,68.000 95.800 C 68.000 96.130,67.730 96.400,67.400 96.400 C 67.070 96.400,66.800 96.739,66.800 97.153 C 66.800 97.570,66.443 98.000,66.000 98.116 C 65.560 98.231,65.200 98.612,65.200 98.963 C 65.200 99.333,64.865 99.600,64.400 99.600 C 63.956 99.600,63.600 99.867,63.600 100.200 C 63.600 100.530,63.330 100.800,63.000 100.800 C 62.670 100.800,62.400 101.139,62.400 101.553 C 62.400 101.970,62.043 102.400,61.600 102.516 C 61.160 102.631,60.800 103.012,60.800 103.363 C 60.800 103.733,60.465 104.000,60.000 104.000 C 59.556 104.000,59.200 104.267,59.200 104.600 C 59.200 104.930,58.930 105.200,58.600 105.200 C 58.181 105.200,58.000 105.622,58.000 106.600 C 58.000 107.733,57.848 108.000,57.200 108.000 C 56.756 108.000,56.400 108.267,56.400 108.600 C 56.400 108.930,56.130 109.200,55.800 109.200 C 55.339 109.200,55.200 109.711,55.200 111.400 C 55.200 113.333,55.103 113.600,54.400 113.600 C 53.730 113.600,53.600 113.867,53.600 115.247 C 53.600 116.696,53.504 116.868,52.800 116.684 C 52.207 116.529,52.000 116.672,52.000 117.237 C 52.000 117.657,51.730 118.000,51.400 118.000 C 50.939 118.000,50.800 118.511,50.800 120.200 C 50.800 122.133,50.703 122.400,50.000 122.400 C 49.352 122.400,49.200 122.667,49.200 123.800 C 49.200 124.778,49.019 125.200,48.600 125.200 C 48.124 125.200,48.000 125.778,48.000 128.000 C 48.000 130.533,47.924 130.800,47.200 130.800 C 45.935 130.800,45.935 275.953,47.200 276.284 C 47.774 276.434,48.000 276.830,48.000 277.684 C 48.000 278.538,48.226 278.934,48.800 279.084 C 49.358 279.230,49.600 279.630,49.600 280.404 C 49.600 281.022,49.866 281.616,50.200 281.745 C 50.530 281.871,50.800 282.339,50.800 282.784 C 50.800 283.230,51.358 284.090,52.039 284.697 C 52.720 285.304,53.800 286.266,54.439 286.836 C 55.078 287.405,55.600 288.220,55.600 288.647 C 55.600 289.073,55.960 289.730,56.400 290.107 C 56.840 290.484,57.200 291.131,57.200 291.546 C 57.200 291.967,58.787 293.853,60.800 295.822 C 62.780 297.760,64.400 299.677,64.400 300.082 C 64.400 301.021,69.151 305.568,70.152 305.586 C 70.565 305.594,71.854 306.590,73.017 307.800 C 74.465 309.307,75.443 310.000,76.123 310.000 C 76.668 310.000,77.220 310.274,77.348 310.609 C 77.548 311.130,78.669 311.202,85.091 311.109 L 92.600 311.000 92.729 309.876 C 92.800 309.258,93.115 308.654,93.429 308.534 C 93.920 308.345,94.000 299.705,94.000 246.619 C 94.000 185.432,94.007 184.918,94.800 184.200 C 95.537 183.533,95.600 182.968,95.600 176.987 C 95.600 171.707,95.712 170.405,96.200 170.000 C 96.537 169.721,96.800 168.849,96.800 168.013 C 96.800 167.032,97.073 166.277,97.600 165.800 C 98.152 165.300,98.400 164.568,98.400 163.434 C 98.400 162.226,98.611 161.661,99.200 161.293 C 99.640 161.018,100.000 160.380,100.000 159.875 C 100.000 159.351,100.601 158.375,101.400 157.600 C 102.170 156.854,102.800 155.898,102.800 155.476 C 102.800 155.036,104.337 153.210,106.400 151.200 C 108.380 149.270,110.000 147.366,110.000 146.968 C 110.000 146.024,111.949 144.000,112.857 144.000 C 113.827 144.000,118.400 139.482,118.400 138.524 C 118.400 137.510,120.331 135.704,121.597 135.534 C 122.350 135.433,122.645 135.106,122.800 134.200 C 122.954 133.300,123.253 132.965,123.994 132.860 C 125.159 132.696,126.800 131.057,126.800 130.058 C 126.800 129.157,129.221 126.800,130.146 126.800 C 130.535 126.800,131.448 126.170,132.174 125.400 C 132.900 124.630,133.840 124.000,134.262 124.000 C 134.685 124.000,135.917 123.100,137.000 122.000 C 138.083 120.900,139.337 120.000,139.785 119.999 C 140.233 119.999,141.277 119.279,142.105 118.399 C 143.043 117.403,143.969 116.800,144.562 116.800 C 145.086 116.800,145.618 116.530,145.745 116.200 C 145.871 115.870,146.360 115.600,146.831 115.600 C 147.331 115.600,148.617 114.685,149.923 113.400 C 151.799 111.553,152.390 111.200,153.601 111.200 C 154.724 111.200,155.343 110.890,156.400 109.800 C 157.146 109.030,158.132 108.400,158.590 108.400 C 159.048 108.400,159.730 108.040,160.107 107.600 C 160.575 107.054,161.287 106.800,162.353 106.800 C 163.372 106.800,163.994 106.592,164.145 106.200 C 164.271 105.870,164.836 105.600,165.400 105.600 C 166.060 105.600,166.882 105.101,167.710 104.200 C 168.416 103.430,169.373 102.800,169.835 102.800 C 170.298 102.800,171.002 102.440,171.400 102.000 C 171.877 101.473,172.632 101.200,173.613 101.200 C 174.449 101.200,175.321 100.937,175.600 100.600 C 175.874 100.270,176.520 100.000,177.035 100.000 C 177.562 100.000,178.159 99.650,178.400 99.200 C 178.726 98.591,179.238 98.400,180.545 98.400 C 182.017 98.400,182.427 98.201,183.428 97.000 C 184.195 96.081,184.941 95.600,185.602 95.600 C 186.174 95.600,186.823 95.256,187.107 94.800 C 187.483 94.198,188.040 94.000,189.361 94.000 C 190.551 94.000,191.188 93.807,191.345 93.400 C 191.689 92.503,207.001 92.503,207.345 93.400 C 207.513 93.839,208.205 94.000,209.925 94.000 C 211.768 94.000,212.432 94.173,213.000 94.800 C 213.398 95.240,214.102 95.600,214.565 95.600 C 215.027 95.600,215.984 96.230,216.690 97.000 C 217.748 98.152,218.258 98.400,219.574 98.400 C 220.762 98.400,221.282 98.605,221.600 99.200 C 221.875 99.714,222.438 100.000,223.171 100.000 C 223.818 100.000,224.414 100.260,224.545 100.600 C 224.702 101.010,225.344 101.200,226.573 101.200 C 227.962 101.200,228.469 101.382,228.800 102.000 C 229.035 102.440,229.637 102.800,230.136 102.800 C 230.648 102.800,231.634 103.410,232.400 104.200 C 233.188 105.013,234.149 105.600,234.691 105.600 C 235.205 105.600,235.729 105.870,235.855 106.200 C 236.012 106.607,236.649 106.800,237.839 106.800 C 239.160 106.800,239.717 106.998,240.093 107.600 C 240.368 108.040,241.005 108.400,241.509 108.400 C 242.044 108.400,242.958 108.982,243.710 109.800 C 244.751 110.934,245.286 111.200,246.532 111.200 C 247.872 111.200,248.340 111.482,250.183 113.400 C 251.368 114.633,252.649 115.600,253.099 115.600 C 253.541 115.600,254.126 115.870,254.400 116.200 C 254.674 116.530,255.301 116.800,255.793 116.800 C 256.343 116.800,257.209 117.415,258.044 118.398 C 258.867 119.368,259.747 119.997,260.284 119.998 C 260.827 119.999,261.889 120.771,263.039 122.000 C 264.176 123.216,265.251 124.000,265.781 124.000 C 266.275 124.000,267.191 124.607,267.892 125.400 C 268.574 126.170,269.498 126.800,269.946 126.800 C 270.909 126.800,273.195 129.106,273.198 130.079 C 273.201 131.139,274.975 132.800,276.103 132.800 C 277.128 132.800,277.600 133.441,277.600 134.833 C 277.600 135.368,277.880 135.600,278.525 135.600 C 279.594 135.600,281.600 137.516,281.600 138.537 C 281.600 139.443,286.221 144.000,287.140 144.000 C 288.051 144.000,290.000 146.022,290.000 146.968 C 290.000 147.366,291.620 149.270,293.600 151.200 C 295.655 153.203,297.200 155.037,297.200 155.474 C 297.200 155.894,297.824 156.860,298.587 157.619 C 299.350 158.379,299.980 159.377,299.987 159.838 C 299.994 160.299,300.360 161.002,300.800 161.400 C 301.360 161.907,301.600 162.632,301.600 163.819 C 301.600 164.957,301.797 165.590,302.200 165.745 C 302.608 165.901,302.800 166.540,302.800 167.738 C 302.800 168.889,303.029 169.692,303.459 170.049 C 304.048 170.538,304.090 171.428,303.851 178.334 C 303.590 185.875,303.603 186.076,304.391 186.282 C 305.198 186.493,305.200 186.614,305.200 247.847 C 305.200 302.116,305.269 309.200,305.800 309.200 C 306.154 309.200,306.403 309.569,306.406 310.100 C 306.419 312.005,306.631 312.054,313.031 311.618 C 316.314 311.395,320.373 311.210,322.051 311.206 C 324.269 311.202,325.238 311.036,325.600 310.600 C 325.874 310.270,326.520 310.000,327.035 310.000 C 327.562 310.000,328.159 309.650,328.400 309.200 C 328.635 308.760,329.234 308.400,329.731 308.400 C 330.881 308.400,333.890 305.347,334.068 304.000 C 334.163 303.281,334.481 302.963,335.200 302.869 C 336.450 302.706,341.200 298.106,341.200 297.059 C 341.200 296.638,341.830 295.700,342.600 294.974 C 343.370 294.248,344.000 293.310,344.000 292.889 C 344.000 292.468,344.360 291.798,344.800 291.400 C 345.240 291.002,345.600 290.298,345.600 289.835 C 345.600 289.373,346.230 288.416,347.000 287.710 C 347.818 286.958,348.400 286.044,348.400 285.509 C 348.400 285.005,348.760 284.368,349.200 284.093 C 349.640 283.818,350.000 283.167,350.000 282.646 C 350.000 282.124,350.270 281.474,350.600 281.200 C 350.930 280.926,351.200 280.376,351.200 279.977 C 351.200 279.578,352.190 278.262,353.400 277.052 L 355.600 274.852 355.600 268.246 C 355.600 262.891,355.710 261.578,356.180 261.315 C 357.112 260.794,357.173 139.262,356.242 138.581 C 355.773 138.238,355.600 137.447,355.600 135.643 C 355.600 133.818,355.444 133.115,355.000 132.945 C 354.670 132.818,354.400 132.282,354.400 131.753 C 354.400 131.225,354.040 130.484,353.600 130.107 C 352.960 129.560,352.800 128.927,352.800 126.954 C 352.800 125.129,352.644 124.426,352.200 124.255 C 351.870 124.129,351.600 123.597,351.600 123.075 C 351.600 122.552,351.240 121.798,350.800 121.400 C 350.360 121.002,350.000 120.248,350.000 119.725 C 350.000 119.203,349.730 118.671,349.400 118.545 C 349.070 118.418,348.800 117.837,348.800 117.254 C 348.800 116.554,348.325 115.758,347.400 114.910 C 346.499 114.082,346.000 113.260,346.000 112.600 C 346.000 112.036,345.730 111.471,345.400 111.345 C 345.062 111.215,344.800 110.619,344.800 109.980 C 344.800 109.286,344.478 108.620,343.973 108.266 C 343.517 107.947,343.179 107.442,343.220 107.143 C 343.390 105.907,343.165 105.200,342.600 105.200 C 342.181 105.200,342.000 104.778,342.000 103.800 C 342.000 102.851,341.815 102.400,341.427 102.400 C 341.112 102.400,340.740 102.040,340.600 101.600 C 340.411 101.005,339.995 100.800,338.973 100.800 C 338.218 100.800,337.600 100.629,337.600 100.421 C 337.600 99.870,335.788 98.000,335.254 98.000 C 335.004 98.000,334.797 97.775,334.793 97.500 C 334.785 96.890,333.058 95.200,332.444 95.200 C 332.200 95.200,332.000 94.840,332.000 94.400 C 332.000 93.752,331.733 93.600,330.600 93.600 C 329.622 93.600,329.200 93.419,329.200 93.000 C 329.200 92.670,328.942 92.400,328.627 92.400 C 328.312 92.400,327.940 92.040,327.800 91.600 C 327.660 91.160,327.309 90.800,327.020 90.800 C 326.730 90.800,326.399 90.440,326.284 90.000 C 326.134 89.425,325.738 89.200,324.880 89.200 C 324.187 89.200,323.589 88.948,323.455 88.600 C 323.321 88.249,322.721 88.000,322.013 88.000 C 320.893 88.000,320.800 87.892,320.800 86.600 C 320.800 85.272,320.729 85.200,319.427 85.200 C 318.405 85.200,317.989 84.995,317.800 84.400 C 317.660 83.960,317.288 83.600,316.973 83.600 C 316.658 83.600,316.400 83.350,316.400 83.043 C 316.400 82.328,314.827 81.935,313.239 82.252 C 312.165 82.467,312.000 82.387,312.000 81.650 C 312.000 81.183,311.751 80.800,311.447 80.800 C 311.142 80.800,310.793 80.418,310.671 79.951 C 310.479 79.216,310.257 79.138,309.025 79.369 C 307.908 79.579,307.600 79.507,307.600 79.038 C 307.600 78.709,307.361 78.296,307.070 78.120 C 306.778 77.944,306.415 77.463,306.264 77.051 C 306.045 76.458,305.732 76.354,304.756 76.549 C 303.746 76.751,303.486 76.651,303.315 75.998 C 303.201 75.559,302.858 75.200,302.553 75.200 C 302.249 75.200,302.000 74.840,302.000 74.400 C 302.000 73.752,301.733 73.600,300.600 73.600 C 299.642 73.600,299.200 73.416,299.200 73.018 C 299.200 72.670,298.638 72.331,297.800 72.174 C 296.998 72.023,296.400 71.674,296.400 71.355 C 296.400 70.974,295.899 70.800,294.800 70.800 C 293.644 70.800,293.200 70.633,293.200 70.200 C 293.200 69.870,292.930 69.600,292.600 69.600 C 292.267 69.600,292.000 69.244,292.000 68.800 C 292.000 68.360,291.751 68.000,291.447 68.000 C 291.142 68.000,290.799 67.640,290.684 67.200 C 290.532 66.617,290.138 66.400,289.237 66.400 C 288.404 66.400,288.000 66.204,288.000 65.800 C 288.000 65.367,287.556 65.200,286.400 65.200 C 285.067 65.200,284.800 65.067,284.800 64.400 C 284.800 63.752,284.533 63.600,283.400 63.600 C 282.471 63.600,282.000 63.413,282.000 63.043 C 282.000 62.328,280.427 61.935,278.839 62.252 C 277.853 62.449,277.600 62.365,277.600 61.837 C 277.600 61.473,277.337 61.074,277.015 60.950 C 276.694 60.827,276.321 60.383,276.188 59.963 C 276.055 59.543,275.688 59.200,275.373 59.200 C 275.058 59.200,274.800 58.930,274.800 58.600 C 274.800 58.139,274.289 58.000,272.600 58.000 C 270.622 58.000,270.400 57.914,270.400 57.148 C 270.400 56.397,270.233 56.322,269.000 56.523 C 267.804 56.717,267.600 56.637,267.600 55.975 C 267.600 55.549,267.330 55.200,267.000 55.200 C 266.667 55.200,266.400 54.844,266.400 54.400 C 266.400 53.697,266.133 53.600,264.200 53.600 L 262.000 53.600 262.000 52.200 C 262.000 50.876,261.927 50.800,260.647 50.800 C 259.601 50.800,259.243 50.606,259.070 49.945 C 258.883 49.232,258.644 49.131,257.623 49.335 C 256.589 49.542,256.400 49.458,256.400 48.790 C 256.400 48.135,256.127 48.000,254.800 48.000 C 253.467 48.000,253.200 47.867,253.200 47.200 C 253.200 46.756,252.933 46.400,252.600 46.400 C 252.270 46.400,252.000 46.130,252.000 45.800 C 252.000 45.470,251.730 45.200,251.400 45.200 C 251.067 45.200,250.800 44.844,250.800 44.400 C 250.800 43.867,250.533 43.600,250.000 43.600 C 249.467 43.600,249.200 43.333,249.200 42.800 C 249.200 42.097,248.933 42.000,247.000 42.000 C 245.311 42.000,244.800 41.861,244.800 41.400 C 244.800 40.981,244.378 40.800,243.400 40.800 C 242.267 40.800,242.000 40.648,242.000 40.000 C 242.000 39.556,241.733 39.200,241.400 39.200 C 241.070 39.200,240.800 38.930,240.800 38.600 C 240.800 38.139,240.289 38.000,238.600 38.000 C 236.667 38.000,236.400 37.903,236.400 37.200 C 236.400 36.667,236.133 36.400,235.600 36.400 C 235.156 36.400,234.800 36.133,234.800 35.800 C 234.800 35.339,234.289 35.200,232.600 35.200 C 230.667 35.200,230.400 35.103,230.400 34.400 C 230.400 33.707,230.133 33.600,228.400 33.600 C 226.622 33.600,226.400 33.505,226.400 32.742 C 226.400 31.921,226.271 31.894,223.400 32.111 C 220.628 32.321,220.400 32.280,220.400 31.569 C 220.400 30.820,219.858 30.800,199.800 30.800 C 181.756 30.800,179.200 30.874,179.200 31.400 M188.198 125.795 C 187.960 126.152,186.838 126.493,185.400 126.648 C 183.371 126.865,182.799 127.113,181.701 128.253 C 180.897 129.086,180.015 129.600,179.388 129.600 C 178.831 129.600,178.271 129.870,178.145 130.200 C 178.018 130.530,177.485 130.800,176.961 130.800 C 176.436 130.800,175.782 131.160,175.507 131.600 C 175.232 132.040,174.800 132.400,174.547 132.400 C 174.293 132.400,173.982 132.670,173.855 133.000 C 173.729 133.330,173.171 133.600,172.616 133.600 C 172.040 133.600,171.392 133.943,171.107 134.400 C 170.823 134.856,170.174 135.200,169.602 135.200 C 168.941 135.200,168.195 135.681,167.428 136.600 C 166.611 137.580,165.930 138.000,165.157 138.000 C 164.405 138.000,163.973 138.255,163.800 138.800 C 163.660 139.240,163.288 139.600,162.973 139.600 C 162.658 139.600,162.400 139.870,162.400 140.200 C 162.400 140.598,162.002 140.800,161.214 140.800 C 160.438 140.800,159.880 141.076,159.600 141.600 C 159.320 142.124,158.762 142.400,157.986 142.400 C 157.243 142.400,156.800 142.607,156.800 142.953 C 156.800 143.258,156.440 143.601,156.000 143.716 C 155.387 143.876,155.200 144.262,155.200 145.363 C 155.200 146.374,155.022 146.800,154.600 146.800 C 154.270 146.800,154.000 147.070,154.000 147.400 C 154.000 147.853,153.513 148.000,152.020 148.000 C 149.904 148.000,149.127 148.634,149.499 150.057 C 149.632 150.567,149.479 150.800,149.009 150.800 C 148.633 150.800,148.231 151.160,148.116 151.600 C 148.001 152.040,147.703 152.403,147.453 152.407 C 146.879 152.416,145.200 154.167,145.200 154.756 C 145.200 155.000,144.930 155.200,144.600 155.200 C 144.270 155.200,144.000 155.476,144.000 155.813 C 144.000 156.149,143.685 156.541,143.300 156.682 C 142.915 156.824,142.456 157.178,142.280 157.470 C 142.104 157.761,141.699 158.000,141.380 158.000 C 141.061 158.000,140.800 158.227,140.800 158.504 C 140.800 158.781,140.440 159.232,140.000 159.507 C 139.490 159.826,139.200 160.440,139.200 161.203 C 139.200 162.000,139.000 162.400,138.600 162.400 C 138.181 162.400,138.000 162.822,138.000 163.800 C 138.000 165.133,137.933 165.200,136.600 165.200 C 135.675 165.200,135.200 165.388,135.200 165.753 C 135.200 166.058,134.822 166.406,134.360 166.526 C 133.620 166.720,133.536 166.989,133.660 168.773 C 133.770 170.369,133.672 170.802,133.200 170.807 C 132.870 170.811,132.195 171.241,131.700 171.763 L 130.800 172.713 130.800 255.156 C 130.800 337.333,130.803 337.600,131.600 337.600 C 132.303 337.600,132.400 337.867,132.400 339.800 C 132.400 341.489,132.539 342.000,133.000 342.000 C 133.330 342.000,133.600 342.345,133.600 342.767 C 133.600 343.946,134.029 344.800,134.621 344.800 C 134.976 344.800,135.197 345.441,135.278 346.700 C 135.391 348.465,135.485 348.614,136.601 348.800 C 137.262 348.910,138.404 349.540,139.140 350.200 C 139.876 350.860,140.982 351.850,141.598 352.400 C 142.215 352.950,142.782 353.850,142.859 354.400 C 142.963 355.134,143.277 355.432,144.042 355.521 C 144.615 355.587,145.685 356.262,146.420 357.021 C 147.155 357.779,148.136 358.400,148.600 358.400 C 149.064 358.400,150.054 359.030,150.800 359.800 C 151.546 360.570,152.505 361.200,152.931 361.200 C 153.357 361.200,154.300 361.830,155.026 362.600 C 155.800 363.421,156.731 364.000,157.277 364.000 C 157.789 364.000,158.432 364.360,158.707 364.800 C 158.992 365.257,159.640 365.600,160.216 365.600 C 160.771 365.600,161.329 365.870,161.455 366.200 C 161.582 366.530,162.118 366.800,162.647 366.800 C 163.175 366.800,163.916 367.160,164.293 367.600 C 164.670 368.040,165.360 368.400,165.827 368.400 C 166.294 368.400,167.002 368.760,167.400 369.200 C 167.957 369.815,168.632 370.000,170.322 370.000 C 172.307 370.000,172.650 370.135,173.879 371.400 C 175.127 372.685,175.430 372.800,177.576 372.800 C 179.286 372.800,179.976 372.961,180.145 373.400 C 180.345 373.922,182.852 374.000,199.345 374.000 C 215.838 374.000,218.344 373.922,218.545 373.400 C 218.723 372.936,219.499 372.800,221.973 372.800 C 224.762 372.800,225.227 372.698,225.600 372.000 C 225.841 371.550,226.438 371.200,226.965 371.200 C 227.480 371.200,228.126 370.930,228.400 370.600 C 228.696 370.244,229.570 370.000,230.553 370.000 C 231.774 370.000,232.338 369.791,232.707 369.200 C 233.079 368.604,233.640 368.400,234.907 368.400 C 236.174 368.400,236.735 368.196,237.107 367.600 C 237.382 367.160,238.033 366.800,238.554 366.800 C 239.076 366.800,239.726 366.530,240.000 366.200 C 240.274 365.870,240.851 365.600,241.284 365.600 C 241.716 365.600,243.020 364.610,244.183 363.400 C 245.346 362.190,246.645 361.200,247.070 361.200 C 247.495 361.200,248.454 360.570,249.200 359.800 C 249.946 359.030,250.894 358.400,251.305 358.400 C 251.745 358.400,255.416 355.037,260.208 350.245 L 268.362 342.091 268.420 257.416 L 268.478 172.741 267.239 171.635 C 266.441 170.923,266.000 170.150,266.000 169.464 C 266.000 168.807,265.781 168.400,265.427 168.400 C 265.112 168.400,264.740 168.040,264.600 167.600 C 264.460 167.160,264.088 166.800,263.773 166.800 C 263.458 166.800,263.200 166.633,263.200 166.430 C 263.200 166.226,262.300 165.150,261.200 164.038 C 259.825 162.649,259.200 161.690,259.200 160.971 C 259.200 160.262,258.943 159.858,258.400 159.716 C 257.960 159.601,257.600 159.323,257.600 159.099 C 257.600 158.400,255.600 156.800,254.725 156.800 C 253.678 156.800,252.000 155.031,252.000 153.927 C 252.000 153.469,251.370 152.500,250.600 151.774 C 249.830 151.048,249.200 150.283,249.200 150.074 C 249.200 149.864,248.840 149.599,248.400 149.484 C 247.960 149.369,247.600 148.988,247.600 148.637 C 247.600 148.287,247.330 148.000,247.000 148.000 C 246.670 148.000,246.400 147.742,246.400 147.427 C 246.400 147.112,246.040 146.740,245.600 146.600 C 245.160 146.460,244.800 146.088,244.800 145.773 C 244.800 145.458,244.530 145.200,244.200 145.200 C 243.870 145.200,243.600 144.913,243.600 144.563 C 243.600 144.212,243.240 143.831,242.800 143.716 C 242.360 143.601,242.000 143.258,242.000 142.953 C 242.000 142.649,241.730 142.400,241.400 142.400 C 241.067 142.400,240.800 142.044,240.800 141.600 C 240.800 140.955,240.533 140.800,239.427 140.800 C 238.385 140.800,237.990 140.598,237.788 139.963 C 237.563 139.255,237.312 139.165,236.161 139.381 C 234.973 139.604,234.800 139.532,234.800 138.818 C 234.800 138.358,234.538 138.000,234.200 138.000 C 233.781 138.000,233.600 137.578,233.600 136.600 L 233.600 135.200 231.400 135.200 C 229.467 135.200,229.200 135.103,229.200 134.400 C 229.200 133.960,228.951 133.600,228.647 133.600 C 228.342 133.600,227.995 133.222,227.874 132.761 C 227.679 132.017,227.412 131.938,225.527 132.061 C 223.681 132.182,223.416 132.108,223.518 131.500 C 223.611 130.943,223.346 130.800,222.218 130.800 C 221.067 130.800,220.800 130.650,220.800 130.000 C 220.800 129.352,220.533 129.200,219.400 129.200 C 218.422 129.200,218.000 129.019,218.000 128.600 C 218.000 128.167,217.556 128.000,216.400 128.000 C 215.048 128.000,214.800 127.872,214.800 127.170 C 214.800 126.422,214.594 126.352,212.702 126.452 C 210.989 126.543,210.580 126.438,210.473 125.882 C 210.286 124.912,188.845 124.828,188.198 125.795 " stroke="none" fill="#fcfcfc" fill-rule="evenodd"></path><path id="path1" d="M220.800 31.633 C 220.800 32.608,221.735 32.470,221.929 31.467 C 222.006 31.072,221.802 30.800,221.429 30.800 C 221.058 30.800,220.800 31.142,220.800 31.633 M174.300 32.276 C 173.335 32.528,173.416 33.600,174.400 33.600 C 174.933 33.600,175.200 33.333,175.200 32.800 C 175.200 32.360,175.155 32.021,175.100 32.046 C 175.045 32.072,174.685 32.175,174.300 32.276 M226.400 33.000 C 226.400 33.330,226.670 33.600,227.000 33.600 C 227.330 33.600,227.600 33.330,227.600 33.000 C 227.600 32.670,227.330 32.400,227.000 32.400 C 226.670 32.400,226.400 32.670,226.400 33.000 M230.800 34.367 C 230.800 34.858,231.058 35.200,231.429 35.200 C 231.802 35.200,232.006 34.928,231.929 34.533 C 231.735 33.530,230.800 33.392,230.800 34.367 M164.100 36.665 C 163.297 36.989,163.525 38.000,164.400 38.000 C 164.933 38.000,165.200 37.733,165.200 37.200 C 165.200 36.392,165.008 36.298,164.100 36.665 M160.800 38.600 C 160.800 38.933,161.156 39.200,161.600 39.200 C 162.044 39.200,162.400 38.933,162.400 38.600 C 162.400 38.267,162.044 38.000,161.600 38.000 C 161.156 38.000,160.800 38.267,160.800 38.600 M151.500 42.276 C 150.535 42.528,150.616 43.600,151.600 43.600 C 152.133 43.600,152.400 43.333,152.400 42.800 C 152.400 42.360,152.355 42.021,152.300 42.046 C 152.245 42.072,151.885 42.175,151.500 42.276 M250.800 44.800 C 250.800 45.020,251.070 45.200,251.400 45.200 C 251.730 45.200,252.000 45.449,252.000 45.753 C 252.000 46.058,252.360 46.401,252.800 46.516 C 253.240 46.631,253.600 47.012,253.600 47.363 C 253.600 47.824,253.986 48.000,255.000 48.000 C 255.978 48.000,256.400 48.181,256.400 48.600 C 256.400 49.019,256.822 49.200,257.800 49.200 C 258.933 49.200,259.200 49.352,259.200 50.000 C 259.200 50.648,259.467 50.800,260.600 50.800 C 261.933 50.800,262.000 50.867,262.000 52.200 L 262.000 53.600 264.200 53.600 C 266.133 53.600,266.400 53.697,266.400 54.400 C 266.400 54.852,266.667 55.200,267.013 55.200 C 267.349 55.200,267.729 55.470,267.855 55.800 C 267.989 56.148,268.587 56.400,269.280 56.400 C 270.138 56.400,270.534 56.625,270.684 57.200 C 270.854 57.849,271.230 58.000,272.677 58.000 L 274.462 58.000 273.262 56.800 C 272.602 56.140,271.723 55.600,271.309 55.600 C 270.895 55.600,269.946 54.970,269.200 54.200 C 268.412 53.387,267.451 52.800,266.909 52.800 C 266.395 52.800,265.871 52.530,265.745 52.200 C 265.618 51.870,265.112 51.600,264.619 51.600 C 264.127 51.600,263.398 51.240,263.000 50.800 C 262.602 50.360,262.017 50.000,261.701 50.000 C 261.385 50.000,260.669 49.640,260.109 49.200 C 259.550 48.760,258.782 48.400,258.402 48.400 C 258.023 48.400,257.102 47.772,256.356 47.004 C 255.610 46.237,254.617 45.607,254.149 45.604 C 253.681 45.602,253.074 45.330,252.800 45.000 C 252.241 44.327,250.800 44.183,250.800 44.800 M145.200 47.200 C 145.200 47.644,145.467 48.000,145.800 48.000 C 146.133 48.000,146.400 47.644,146.400 47.200 C 146.400 46.756,146.133 46.400,145.800 46.400 C 145.467 46.400,145.200 46.756,145.200 47.200 M142.400 48.600 C 142.400 48.930,142.670 49.200,143.000 49.200 C 143.330 49.200,143.600 48.930,143.600 48.600 C 143.600 48.270,143.330 48.000,143.000 48.000 C 142.670 48.000,142.400 48.270,142.400 48.600 M139.680 49.680 C 138.975 50.385,139.093 50.800,140.000 50.800 C 140.533 50.800,140.800 50.533,140.800 50.000 C 140.800 49.093,140.385 48.975,139.680 49.680 M136.667 52.267 C 136.116 52.817,136.429 53.600,137.200 53.600 C 137.733 53.600,138.000 53.333,138.000 52.800 C 138.000 52.029,137.217 51.716,136.667 52.267 M130.800 55.800 C 130.800 56.133,131.156 56.400,131.600 56.400 C 132.044 56.400,132.400 56.133,132.400 55.800 C 132.400 55.467,132.044 55.200,131.600 55.200 C 131.156 55.200,130.800 55.467,130.800 55.800 M274.800 58.800 C 274.800 59.020,275.160 59.200,275.600 59.200 C 276.133 59.200,276.400 59.467,276.400 60.000 C 276.400 60.440,276.649 60.800,276.953 60.800 C 277.258 60.800,277.596 61.140,277.704 61.556 C 277.874 62.203,278.174 62.282,279.774 62.102 C 281.440 61.914,281.671 61.985,281.870 62.745 C 282.064 63.487,284.000 64.082,284.000 63.400 C 284.000 62.868,282.306 61.600,281.596 61.600 C 281.154 61.600,280.484 61.240,280.107 60.800 C 279.730 60.360,279.147 59.996,278.811 59.991 C 278.475 59.986,277.750 59.630,277.200 59.200 C 276.131 58.363,274.800 58.142,274.800 58.800 M122.172 61.245 C 122.021 61.489,122.146 61.847,122.449 62.039 C 123.305 62.581,123.600 62.468,123.600 61.600 C 123.600 60.746,122.630 60.505,122.172 61.245 M119.700 62.265 C 118.897 62.589,119.125 63.600,120.000 63.600 C 120.533 63.600,120.800 63.333,120.800 62.800 C 120.800 61.992,120.608 61.898,119.700 62.265 M116.667 63.867 C 116.116 64.417,116.429 65.200,117.200 65.200 C 117.733 65.200,118.000 64.933,118.000 64.400 C 118.000 63.629,117.217 63.316,116.667 63.867 M114.000 65.800 C 113.584 66.301,113.642 66.400,114.351 66.400 C 114.839 66.400,115.200 66.145,115.200 65.800 C 115.200 65.470,115.042 65.200,114.849 65.200 C 114.656 65.200,114.274 65.470,114.000 65.800 M288.000 66.000 C 288.000 66.220,288.461 66.400,289.024 66.400 C 289.604 66.400,289.940 66.227,289.800 66.000 C 289.664 65.780,289.203 65.600,288.776 65.600 C 288.349 65.600,288.000 65.780,288.000 66.000 M292.000 68.600 C 292.000 68.930,292.287 69.200,292.637 69.200 C 292.988 69.200,293.369 69.560,293.484 70.000 C 293.641 70.601,294.030 70.800,295.047 70.800 C 295.983 70.800,296.400 70.985,296.400 71.400 C 296.400 71.804,296.804 72.000,297.637 72.000 C 298.538 72.000,298.932 72.217,299.084 72.800 C 299.221 73.323,299.630 73.600,300.267 73.600 C 301.463 73.600,301.196 73.040,299.147 71.262 C 298.158 70.402,297.279 70.000,296.393 70.000 C 295.519 70.000,294.788 69.672,294.165 69.000 C 293.134 67.887,292.000 67.678,292.000 68.600 M105.200 71.357 C 105.200 71.664,105.470 72.018,105.800 72.145 C 106.208 72.301,106.400 72.123,106.400 71.587 C 106.400 71.154,106.130 70.800,105.800 70.800 C 105.470 70.800,105.200 71.051,105.200 71.357 M102.480 72.480 C 101.775 73.185,101.893 73.600,102.800 73.600 C 103.333 73.600,103.600 73.333,103.600 72.800 C 103.600 71.893,103.185 71.775,102.480 72.480 M99.443 74.233 C 99.091 75.150,99.119 75.200,100.000 75.200 C 100.533 75.200,100.800 74.933,100.800 74.400 C 100.800 73.451,99.791 73.326,99.443 74.233 M302.000 74.800 C 302.000 75.020,302.360 75.200,302.800 75.200 C 303.244 75.200,303.600 75.467,303.600 75.800 C 303.600 76.219,304.022 76.400,305.000 76.400 C 306.133 76.400,306.400 76.552,306.400 77.200 C 306.400 77.644,306.667 78.000,307.000 78.000 C 307.330 78.000,307.600 78.270,307.600 78.600 C 307.600 79.033,308.044 79.200,309.200 79.200 C 310.533 79.200,310.800 79.333,310.800 80.000 C 310.800 80.444,311.067 80.800,311.400 80.800 C 311.730 80.800,312.000 81.152,312.000 81.581 C 312.000 82.285,312.201 82.338,314.022 82.123 C 315.831 81.909,316.067 81.970,316.259 82.705 C 316.377 83.156,316.817 83.616,317.237 83.726 C 317.657 83.835,318.000 84.212,318.000 84.563 C 318.000 85.024,318.386 85.200,319.400 85.200 C 320.733 85.200,320.800 85.267,320.800 86.600 C 320.800 87.933,320.867 88.000,322.200 88.000 C 323.178 88.000,323.600 88.181,323.600 88.600 C 323.600 89.019,324.022 89.200,325.000 89.200 C 326.133 89.200,326.400 89.352,326.400 90.000 C 326.400 90.533,326.667 90.800,327.200 90.800 C 327.640 90.800,328.000 91.051,328.000 91.357 C 328.000 91.664,328.270 92.018,328.600 92.145 C 328.930 92.271,329.200 92.651,329.200 92.987 C 329.200 93.421,329.609 93.600,330.600 93.600 C 331.733 93.600,332.000 93.752,332.000 94.400 C 332.000 94.933,332.267 95.200,332.800 95.200 C 333.244 95.200,333.600 95.467,333.600 95.800 C 333.600 96.130,333.870 96.400,334.200 96.400 C 334.533 96.400,334.800 96.756,334.800 97.200 C 334.800 97.733,335.067 98.000,335.600 98.000 C 336.040 98.000,336.400 98.249,336.400 98.553 C 336.400 98.858,336.760 99.201,337.200 99.316 C 337.640 99.431,338.000 99.812,338.000 100.163 C 338.000 100.624,338.386 100.800,339.400 100.800 C 340.391 100.800,340.800 100.979,340.800 101.413 C 340.800 101.749,341.070 102.129,341.400 102.255 C 341.770 102.397,342.000 103.005,342.000 103.843 C 342.000 104.933,342.157 105.200,342.800 105.200 C 343.448 105.200,343.600 105.467,343.600 106.600 C 343.600 107.578,343.781 108.000,344.200 108.000 C 344.615 108.000,344.800 108.417,344.800 109.353 C 344.800 110.370,344.999 110.759,345.600 110.916 C 346.175 111.066,346.400 111.462,346.400 112.320 C 346.400 113.013,346.652 113.611,347.000 113.745 C 347.330 113.871,347.600 114.230,347.600 114.541 C 347.600 114.852,347.960 115.201,348.400 115.316 C 348.975 115.466,349.200 115.862,349.200 116.720 C 349.200 117.413,349.452 118.011,349.800 118.145 C 350.135 118.273,350.400 118.868,350.400 119.491 C 350.400 120.174,350.710 120.801,351.200 121.107 C 351.710 121.426,352.000 122.040,352.000 122.803 C 352.000 123.600,352.200 124.000,352.600 124.000 C 353.074 124.000,353.200 124.567,353.200 126.704 C 353.200 128.974,353.328 129.488,354.000 129.907 C 354.440 130.182,354.800 130.836,354.800 131.361 C 354.800 131.885,355.070 132.418,355.400 132.545 C 355.848 132.717,356.000 133.433,356.000 135.373 C 356.000 137.562,356.126 138.039,356.800 138.400 C 358.063 139.076,358.063 260.412,356.800 261.493 C 356.060 262.126,356.000 262.673,356.000 268.740 L 356.000 275.303 353.800 277.417 C 352.293 278.865,351.600 279.843,351.600 280.523 C 351.600 281.068,351.330 281.618,351.000 281.745 C 350.670 281.871,350.400 282.424,350.400 282.973 C 350.400 283.562,350.072 284.147,349.600 284.400 C 349.128 284.653,348.800 285.238,348.800 285.826 C 348.800 286.456,348.283 287.299,347.400 288.110 C 346.582 288.860,346.000 289.775,346.000 290.310 C 346.000 290.813,345.730 291.329,345.400 291.455 C 345.070 291.582,344.800 292.109,344.800 292.627 C 344.800 293.195,344.165 294.198,343.200 295.153 C 342.320 296.024,341.600 297.073,341.600 297.484 C 341.600 298.518,336.730 303.200,335.655 303.200 C 335.037 303.200,334.798 303.449,334.794 304.100 C 334.786 305.197,331.210 308.800,330.129 308.800 C 329.716 308.800,329.070 309.160,328.693 309.600 C 328.316 310.040,327.621 310.400,327.148 310.400 C 326.675 310.400,326.088 310.670,325.844 310.999 C 325.482 311.488,323.655 311.647,315.900 311.863 L 306.400 312.128 306.400 310.664 C 306.400 309.629,306.224 309.200,305.800 309.200 C 305.269 309.200,305.200 302.111,305.200 247.800 C 305.200 186.667,305.197 186.400,304.400 186.400 C 303.627 186.400,303.600 186.133,303.600 178.443 C 303.600 171.739,303.506 170.449,303.000 170.255 C 302.595 170.100,302.400 169.465,302.400 168.301 C 302.400 167.098,302.169 166.380,301.634 165.922 C 301.033 165.407,300.913 164.922,301.081 163.672 C 301.260 162.335,301.159 162.006,300.447 161.625 C 299.975 161.372,299.600 160.779,299.600 160.283 C 299.600 159.779,298.994 158.839,298.200 158.110 C 297.430 157.403,296.800 156.439,296.800 155.967 C 296.800 155.413,295.524 153.865,293.200 151.600 C 290.908 149.366,289.600 147.784,289.600 147.246 C 289.600 146.194,288.255 144.800,287.240 144.800 C 286.206 144.800,281.200 139.863,281.200 138.842 C 281.200 137.731,279.451 136.082,278.109 135.927 C 277.182 135.821,276.979 135.586,276.875 134.500 C 276.769 133.399,276.590 133.200,275.710 133.200 C 274.529 133.200,272.400 131.096,272.400 129.928 C 272.400 128.967,271.002 127.600,270.019 127.600 C 269.590 127.600,268.627 126.970,267.879 126.200 C 267.131 125.430,266.177 124.800,265.758 124.800 C 265.339 124.800,264.056 123.810,262.906 122.600 C 261.757 121.390,260.468 120.400,260.043 120.400 C 259.617 120.400,258.620 119.770,257.827 119.000 C 257.034 118.230,256.030 117.600,255.596 117.600 C 255.162 117.600,254.582 117.240,254.307 116.800 C 254.032 116.360,253.385 116.000,252.869 116.000 C 252.255 116.000,251.201 115.241,249.817 113.800 C 247.953 111.860,247.516 111.600,246.121 111.600 C 244.802 111.600,244.345 111.367,243.372 110.200 C 242.577 109.246,241.867 108.800,241.145 108.800 C 240.562 108.800,239.982 108.530,239.855 108.200 C 239.698 107.790,239.056 107.600,237.827 107.600 C 236.438 107.600,235.931 107.418,235.600 106.800 C 235.357 106.347,234.762 106.000,234.227 106.000 C 233.649 106.000,232.807 105.458,232.054 104.600 C 231.266 103.702,230.466 103.200,229.826 103.200 C 229.238 103.200,228.653 102.872,228.400 102.400 C 228.069 101.782,227.562 101.600,226.173 101.600 C 224.944 101.600,224.302 101.410,224.145 101.000 C 224.018 100.670,223.482 100.400,222.953 100.400 C 222.425 100.400,221.684 100.040,221.307 99.600 C 220.832 99.045,220.127 98.800,219.009 98.800 C 217.654 98.800,217.208 98.576,216.228 97.400 C 215.542 96.577,214.698 96.000,214.179 96.000 C 213.695 96.000,213.074 95.730,212.800 95.400 C 212.470 95.003,211.575 94.800,210.151 94.800 C 208.533 94.800,207.802 94.602,207.200 94.000 C 205.973 92.773,192.544 92.773,191.493 94.000 C 191.018 94.555,190.313 94.800,189.191 94.800 C 188.123 94.800,187.497 95.004,187.345 95.400 C 187.218 95.730,186.638 96.000,186.055 96.000 C 185.333 96.000,184.623 96.446,183.828 97.400 C 182.842 98.583,182.406 98.800,181.019 98.800 C 179.873 98.800,179.171 99.041,178.693 99.600 C 178.316 100.040,177.575 100.400,177.047 100.400 C 176.518 100.400,175.982 100.670,175.855 101.000 C 175.698 101.410,175.056 101.600,173.827 101.600 C 172.438 101.600,171.931 101.782,171.600 102.400 C 171.357 102.853,170.762 103.200,170.227 103.200 C 169.649 103.200,168.807 103.742,168.054 104.600 C 167.266 105.498,166.466 106.000,165.826 106.000 C 165.238 106.000,164.653 106.328,164.400 106.800 C 164.069 107.418,163.562 107.600,162.173 107.600 C 160.944 107.600,160.302 107.790,160.145 108.200 C 160.018 108.530,159.478 108.800,158.945 108.800 C 158.348 108.800,157.481 109.338,156.690 110.200 C 155.649 111.334,155.114 111.600,153.868 111.600 C 152.528 111.600,152.060 111.882,150.217 113.800 C 149.054 115.010,147.760 116.000,147.340 116.000 C 146.921 116.000,146.270 116.360,145.893 116.800 C 145.516 117.240,144.834 117.600,144.377 117.600 C 143.920 117.600,142.952 118.230,142.226 119.000 C 141.500 119.770,140.547 120.400,140.108 120.400 C 139.669 120.400,138.340 121.386,137.155 122.591 C 135.970 123.796,134.688 124.786,134.307 124.791 C 133.926 124.796,132.966 125.430,132.173 126.200 C 131.380 126.970,130.387 127.600,129.966 127.600 C 128.995 127.600,127.600 128.973,127.600 129.928 C 127.600 131.096,125.471 133.200,124.290 133.200 C 123.410 133.200,123.231 133.399,123.125 134.500 C 123.021 135.586,122.818 135.821,121.891 135.927 C 120.573 136.079,118.800 137.725,118.800 138.796 C 118.800 139.795,113.779 144.800,112.778 144.800 C 111.780 144.800,110.400 146.174,110.400 147.168 C 110.400 147.601,108.832 149.503,106.800 151.535 C 104.820 153.515,103.198 155.465,103.196 155.868 C 103.193 156.270,102.563 157.210,101.796 157.956 C 100.991 158.738,100.400 159.706,100.400 160.242 C 100.400 160.762,100.048 161.360,99.600 161.600 C 98.982 161.931,98.800 162.438,98.800 163.827 C 98.800 165.056,98.610 165.698,98.200 165.855 C 97.793 166.012,97.600 166.649,97.600 167.839 C 97.600 169.160,97.402 169.717,96.800 170.093 C 96.052 170.560,96.000 171.026,96.000 177.247 C 96.000 182.675,95.889 183.994,95.400 184.400 C 94.871 184.839,94.800 192.218,94.800 246.387 C 94.800 306.773,94.786 307.889,94.023 308.580 C 93.595 308.967,93.190 309.759,93.123 310.342 L 93.000 311.400 85.091 311.508 C 78.313 311.601,77.148 311.530,76.948 311.008 C 76.819 310.674,76.295 310.400,75.783 310.400 C 75.188 310.400,74.059 309.607,72.652 308.200 C 71.129 306.677,70.136 306.000,69.426 306.000 C 68.862 306.000,68.400 305.828,68.400 305.618 C 68.400 305.250,66.535 303.200,66.200 303.200 C 65.679 303.200,64.000 301.037,64.000 300.366 C 64.000 299.587,57.904 293.200,57.160 293.200 C 56.962 293.200,56.800 292.666,56.800 292.014 C 56.800 291.238,56.524 290.680,56.000 290.400 C 55.476 290.120,55.200 289.562,55.200 288.786 C 55.200 288.134,55.029 287.600,54.821 287.600 C 54.270 287.600,52.400 285.788,52.400 285.254 C 52.400 285.004,52.040 284.800,51.600 284.800 C 50.958 284.800,50.800 284.533,50.800 283.447 C 50.800 282.430,50.601 282.041,50.000 281.884 C 49.417 281.732,49.200 281.338,49.200 280.437 C 49.200 279.604,49.004 279.200,48.600 279.200 C 48.181 279.200,48.000 278.778,48.000 277.800 C 48.000 276.667,47.848 276.400,47.200 276.400 C 46.403 276.400,46.400 276.133,46.400 210.376 C 46.400 166.463,46.266 144.436,46.000 144.600 C 45.780 144.736,45.600 146.282,45.600 148.036 C 45.600 150.502,45.464 151.277,45.000 151.455 C 44.087 151.806,44.087 291.105,45.000 291.455 C 45.461 291.632,45.600 292.397,45.600 294.764 C 45.600 297.758,45.639 297.881,47.000 299.200 C 48.096 300.263,48.400 300.874,48.400 302.016 C 48.400 302.968,48.678 303.728,49.200 304.200 C 49.640 304.598,50.000 305.302,50.000 305.764 C 50.000 306.236,50.615 307.117,51.400 307.772 C 52.189 308.430,52.800 309.308,52.800 309.783 C 52.800 310.276,53.715 311.531,55.000 312.800 C 56.238 314.023,57.200 315.330,57.200 315.789 C 57.200 316.238,57.830 317.184,58.600 317.890 C 59.370 318.597,60.000 319.530,60.000 319.963 C 60.000 320.425,61.490 322.226,63.600 324.314 C 65.706 326.398,67.200 328.203,67.200 328.663 C 67.200 329.644,69.188 331.600,70.185 331.600 C 70.593 331.600,71.804 332.500,72.875 333.600 C 73.947 334.700,75.169 335.600,75.592 335.600 C 76.015 335.600,76.973 336.230,77.721 337.000 C 78.469 337.770,79.440 338.400,79.878 338.400 C 80.317 338.400,81.002 338.760,81.400 339.200 C 81.996 339.859,82.632 340.000,85.000 340.000 C 87.368 340.000,88.004 340.141,88.600 340.800 C 89.697 342.012,98.855 342.012,99.893 340.800 C 100.468 340.128,101.073 340.000,103.675 340.000 C 106.362 340.000,106.828 339.894,107.200 339.200 C 107.435 338.760,108.032 338.400,108.526 338.400 C 109.698 338.400,114.400 333.703,114.400 332.532 C 114.400 332.066,114.670 331.582,115.000 331.455 C 115.464 331.277,115.600 330.500,115.600 328.016 C 115.600 325.240,115.708 324.739,116.400 324.307 C 117.195 323.811,117.200 323.374,117.200 259.353 C 117.200 202.548,117.271 194.839,117.800 194.400 C 118.253 194.024,118.400 193.007,118.400 190.237 L 118.400 186.573 120.600 184.400 C 121.970 183.047,122.800 181.888,122.800 181.328 C 122.800 180.833,123.160 180.235,123.600 180.000 C 124.040 179.765,124.400 179.180,124.400 178.701 C 124.400 177.555,127.509 174.400,128.637 174.400 C 129.131 174.400,129.800 173.955,130.181 173.373 C 131.198 171.821,132.328 170.800,133.029 170.800 C 133.435 170.800,133.632 170.482,133.584 169.900 C 133.377 167.342,133.597 166.400,134.400 166.400 C 134.844 166.400,135.200 166.133,135.200 165.800 C 135.200 165.381,135.622 165.200,136.600 165.200 C 137.936 165.200,138.000 165.135,138.000 163.787 C 138.000 162.901,138.223 162.289,138.600 162.145 C 138.948 162.011,139.200 161.413,139.200 160.720 C 139.200 159.862,139.425 159.466,140.000 159.316 C 140.440 159.201,140.800 158.858,140.800 158.553 C 140.800 158.249,141.049 158.000,141.353 158.000 C 141.658 158.000,142.001 157.640,142.116 157.200 C 142.231 156.760,142.612 156.400,142.963 156.400 C 143.313 156.400,143.600 156.130,143.600 155.800 C 143.600 155.467,143.956 155.200,144.400 155.200 C 144.933 155.200,145.200 154.933,145.200 154.400 C 145.200 153.956,145.467 153.600,145.800 153.600 C 146.130 153.600,146.400 153.330,146.400 153.000 C 146.400 152.667,146.756 152.400,147.200 152.400 C 147.733 152.400,148.000 152.133,148.000 151.600 C 148.000 151.160,148.259 150.800,148.575 150.800 C 148.931 150.800,149.197 150.305,149.275 149.500 C 149.397 148.236,149.457 148.197,151.458 148.081 C 153.106 147.985,153.558 147.805,153.721 147.181 C 153.833 146.751,154.212 146.400,154.563 146.400 C 155.024 146.400,155.200 146.014,155.200 145.000 C 155.200 144.022,155.381 143.600,155.800 143.600 C 156.130 143.600,156.400 143.338,156.400 143.018 C 156.400 142.672,156.956 142.332,157.772 142.179 C 158.527 142.037,159.241 141.669,159.360 141.361 C 159.478 141.052,160.055 140.800,160.642 140.800 C 161.664 140.800,163.600 139.216,163.600 138.379 C 163.600 138.171,164.230 138.000,165.000 138.000 C 166.014 138.000,166.400 137.824,166.400 137.363 C 166.400 137.012,166.760 136.631,167.200 136.516 C 167.640 136.401,168.000 136.058,168.000 135.753 C 168.000 135.391,168.468 135.200,169.353 135.200 C 170.370 135.200,170.759 135.001,170.916 134.400 C 171.068 133.817,171.462 133.600,172.363 133.600 C 173.196 133.600,173.600 133.404,173.600 133.000 C 173.600 132.667,173.956 132.400,174.400 132.400 C 174.933 132.400,175.200 132.133,175.200 131.600 C 175.200 130.958,175.467 130.800,176.553 130.800 C 177.570 130.800,177.959 130.601,178.116 130.000 C 178.268 129.417,178.662 129.200,179.563 129.200 C 180.396 129.200,180.800 129.004,180.800 128.600 C 180.800 128.270,181.139 128.000,181.553 128.000 C 181.970 128.000,182.400 127.643,182.516 127.200 C 182.698 126.502,183.062 126.400,185.363 126.400 C 187.440 126.400,188.000 126.273,188.000 125.800 C 188.000 125.290,189.022 125.200,194.800 125.200 C 199.067 125.200,201.600 125.051,201.600 124.800 C 201.600 124.580,202.382 124.400,203.338 124.400 C 204.568 124.400,205.288 124.166,205.800 123.600 C 206.418 122.917,207.032 122.800,210.000 122.800 C 212.968 122.800,213.582 122.917,214.200 123.600 C 214.707 124.160,215.432 124.400,216.619 124.400 C 217.757 124.400,218.390 124.597,218.545 125.000 C 218.702 125.410,219.344 125.600,220.573 125.600 C 221.962 125.600,222.469 125.782,222.800 126.400 C 223.124 127.006,223.638 127.200,224.917 127.200 C 226.335 127.200,226.811 127.424,227.890 128.600 C 228.642 129.418,229.556 130.000,230.091 130.000 C 230.595 130.000,231.232 130.360,231.507 130.800 C 231.867 131.376,232.440 131.600,233.554 131.600 C 234.442 131.600,235.314 131.856,235.600 132.200 C 235.874 132.530,236.498 132.800,236.987 132.800 C 237.476 132.800,238.202 133.160,238.600 133.600 C 238.998 134.040,239.752 134.400,240.275 134.400 C 240.797 134.400,241.329 134.670,241.455 135.000 C 241.582 135.330,242.081 135.600,242.564 135.600 C 243.048 135.600,244.054 136.230,244.800 137.000 C 245.575 137.799,246.551 138.400,247.075 138.400 C 247.580 138.400,248.218 138.760,248.493 139.200 C 248.778 139.656,249.426 140.000,250.000 140.000 C 250.574 140.000,251.222 140.344,251.507 140.800 C 251.782 141.240,252.433 141.600,252.954 141.600 C 253.476 141.600,254.126 141.870,254.400 142.200 C 254.674 142.530,255.251 142.800,255.684 142.800 C 256.116 142.800,257.420 143.790,258.583 145.000 C 259.768 146.233,261.049 147.200,261.499 147.200 C 261.941 147.200,262.526 147.470,262.800 147.800 C 263.074 148.130,263.658 148.400,264.097 148.400 C 264.563 148.400,266.122 149.650,267.838 151.400 C 269.457 153.050,271.104 154.400,271.500 154.400 C 272.493 154.400,278.246 160.348,278.560 161.700 C 278.745 162.499,279.062 162.800,279.716 162.800 C 280.940 162.800,287.200 169.075,287.200 170.301 C 287.200 170.937,287.509 171.256,288.300 171.440 C 289.670 171.758,295.600 177.513,295.600 178.525 C 295.600 178.934,296.590 180.205,297.800 181.349 C 299.080 182.560,300.000 183.774,300.000 184.253 C 300.000 184.706,300.360 185.402,300.800 185.800 C 301.490 186.424,301.600 187.032,301.600 190.213 C 301.600 193.004,301.746 194.023,302.200 194.400 C 302.729 194.839,302.800 202.548,302.800 259.353 C 302.800 323.374,302.805 323.811,303.600 324.307 C 304.202 324.683,304.400 325.240,304.400 326.561 C 304.400 327.751,304.593 328.388,305.000 328.545 C 305.410 328.702,305.600 329.344,305.600 330.573 C 305.600 331.962,305.782 332.469,306.400 332.800 C 306.840 333.035,307.200 333.620,307.200 334.099 C 307.200 335.268,310.309 338.400,311.469 338.400 C 311.966 338.400,312.565 338.760,312.800 339.200 C 313.172 339.894,313.638 340.000,316.325 340.000 C 318.927 340.000,319.532 340.128,320.107 340.800 C 320.748 341.549,321.287 341.600,328.534 341.600 C 335.768 341.600,336.324 341.548,337.000 340.800 C 337.500 340.248,338.232 340.000,339.366 340.000 C 340.574 340.000,341.139 339.789,341.507 339.200 C 341.782 338.760,342.433 338.400,342.954 338.400 C 343.476 338.400,344.126 338.130,344.400 337.800 C 344.674 337.470,345.249 337.200,345.679 337.200 C 346.121 337.200,347.637 335.985,349.173 334.400 C 350.711 332.812,352.224 331.600,352.668 331.600 C 353.626 331.600,355.600 329.617,355.600 328.655 C 355.600 328.269,357.220 326.335,359.200 324.357 C 361.180 322.379,362.800 320.444,362.800 320.059 C 362.800 319.673,363.430 318.746,364.200 318.000 C 364.970 317.254,365.600 316.261,365.600 315.795 C 365.600 315.329,366.230 314.389,367.000 313.708 C 368.145 312.694,368.400 312.187,368.400 310.920 C 368.400 309.574,368.687 309.090,370.600 307.200 C 372.463 305.360,372.800 304.805,372.800 303.576 C 372.800 302.632,373.080 301.871,373.600 301.400 C 374.040 301.002,374.400 300.248,374.400 299.725 C 374.400 299.203,374.670 298.671,375.000 298.545 C 375.437 298.377,375.600 297.690,375.600 296.019 C 375.600 294.232,375.777 293.564,376.400 293.000 C 377.120 292.348,377.200 291.768,377.200 287.187 C 377.200 283.151,377.324 281.995,377.800 281.600 C 378.329 281.161,378.400 273.735,378.400 219.194 C 378.400 164.533,378.330 157.259,377.800 157.055 C 377.337 156.878,377.200 156.106,377.200 153.675 C 377.200 151.032,377.071 150.407,376.400 149.800 C 375.741 149.203,375.600 148.568,375.600 146.187 C 375.600 144.107,375.432 143.159,375.000 142.800 C 374.663 142.521,374.400 141.649,374.400 140.813 C 374.400 139.832,374.127 139.077,373.600 138.600 C 373.073 138.123,372.800 137.368,372.800 136.387 C 372.800 135.551,372.537 134.679,372.200 134.400 C 371.870 134.126,371.600 133.519,371.599 133.051 C 371.599 132.576,370.891 131.534,369.999 130.695 C 369.003 129.757,368.400 128.831,368.400 128.238 C 368.400 127.714,368.130 127.182,367.800 127.055 C 367.470 126.929,367.200 126.397,367.200 125.875 C 367.200 125.352,366.840 124.598,366.400 124.200 C 365.960 123.802,365.600 123.073,365.600 122.581 C 365.600 122.088,365.330 121.582,365.000 121.455 C 364.670 121.329,364.400 120.797,364.400 120.275 C 364.400 119.752,364.050 119.007,363.623 118.620 C 363.195 118.233,362.790 117.441,362.723 116.860 C 362.627 116.037,362.335 115.759,361.400 115.599 C 360.529 115.451,360.164 115.142,360.069 114.473 C 359.902 113.299,353.907 107.200,352.921 107.200 C 352.512 107.200,350.928 105.940,349.400 104.400 C 347.872 102.860,346.284 101.600,345.870 101.600 C 345.455 101.600,343.526 99.990,341.557 98.000 C 339.598 96.020,337.664 94.400,337.259 94.400 C 336.855 94.400,336.198 94.040,335.800 93.600 C 335.402 93.160,334.698 92.800,334.235 92.800 C 333.773 92.800,332.816 92.170,332.110 91.400 C 331.403 90.630,330.454 90.000,330.000 90.000 C 329.546 90.000,328.597 89.370,327.890 88.600 C 327.184 87.830,326.235 87.200,325.781 87.200 C 325.328 87.200,324.346 86.570,323.600 85.800 C 322.834 85.010,321.848 84.400,321.336 84.400 C 320.837 84.400,320.235 84.040,320.000 83.600 C 319.759 83.150,319.162 82.800,318.635 82.800 C 318.120 82.800,317.483 82.541,317.220 82.224 C 316.957 81.907,316.260 81.592,315.671 81.524 C 314.875 81.432,314.564 81.143,314.462 80.400 C 314.253 78.893,313.654 78.400,312.029 78.400 C 310.872 78.400,310.267 78.101,309.200 77.000 C 308.412 76.187,307.451 75.600,306.909 75.600 C 306.395 75.600,305.871 75.330,305.745 75.000 C 305.482 74.315,302.000 74.129,302.000 74.800 M96.667 75.467 C 96.160 75.974,96.403 76.400,97.200 76.400 C 97.644 76.400,98.000 76.133,98.000 75.800 C 98.000 75.191,97.154 74.979,96.667 75.467 M93.726 77.163 C 93.616 77.583,93.183 78.016,92.763 78.126 C 91.754 78.390,91.781 79.200,92.800 79.200 C 93.244 79.200,93.600 78.933,93.600 78.600 C 93.600 78.267,93.956 78.000,94.400 78.000 C 94.933 78.000,95.200 77.733,95.200 77.200 C 95.200 76.172,93.993 76.141,93.726 77.163 M82.284 84.400 C 82.129 84.993,82.272 85.200,82.837 85.200 C 83.333 85.200,83.600 84.920,83.600 84.400 C 83.600 83.960,83.351 83.600,83.047 83.600 C 82.742 83.600,82.399 83.960,82.284 84.400 M72.400 91.357 C 72.400 91.664,72.670 92.018,73.000 92.145 C 73.408 92.301,73.600 92.123,73.600 91.587 C 73.600 91.154,73.330 90.800,73.000 90.800 C 72.670 90.800,72.400 91.051,72.400 91.357 M68.116 94.400 C 68.001 94.840,67.703 95.203,67.453 95.207 C 66.879 95.216,65.200 96.967,65.200 97.556 C 65.200 97.800,64.975 98.003,64.700 98.007 C 64.090 98.015,62.400 99.742,62.400 100.356 C 62.400 100.600,62.040 100.800,61.600 100.800 C 61.160 100.800,60.800 101.058,60.800 101.373 C 60.800 101.688,60.440 102.060,60.000 102.200 C 59.560 102.340,59.200 102.712,59.200 103.027 C 59.200 103.342,59.560 103.600,60.000 103.600 C 60.444 103.600,60.800 103.333,60.800 103.000 C 60.800 102.667,61.156 102.400,61.600 102.400 C 62.133 102.400,62.400 102.133,62.400 101.600 C 62.400 101.156,62.667 100.800,63.000 100.800 C 63.330 100.800,63.600 100.513,63.600 100.163 C 63.600 99.812,63.960 99.431,64.400 99.316 C 64.840 99.201,65.200 98.858,65.200 98.553 C 65.200 98.249,65.470 98.000,65.800 98.000 C 66.133 98.000,66.400 97.644,66.400 97.200 C 66.400 96.667,66.667 96.400,67.200 96.400 C 67.644 96.400,68.000 96.133,68.000 95.800 C 68.000 95.470,68.270 95.200,68.600 95.200 C 68.933 95.200,69.200 94.844,69.200 94.400 C 69.200 93.960,69.003 93.600,68.763 93.600 C 68.522 93.600,68.231 93.960,68.116 94.400 M56.667 106.667 C 56.116 107.217,56.429 108.000,57.200 108.000 C 57.733 108.000,58.000 107.733,58.000 107.200 C 58.000 106.429,57.217 106.116,56.667 106.667 M54.300 112.276 C 53.335 112.528,53.416 113.600,54.400 113.600 C 54.933 113.600,55.200 113.333,55.200 112.800 C 55.200 112.360,55.155 112.021,55.100 112.046 C 55.045 112.072,54.685 112.175,54.300 112.276 M52.267 115.467 C 51.760 115.974,52.003 116.400,52.800 116.400 C 53.244 116.400,53.600 116.133,53.600 115.800 C 53.600 115.191,52.754 114.979,52.267 115.467 M49.470 121.361 C 49.219 122.015,49.514 122.400,50.267 122.400 C 50.560 122.400,50.800 122.040,50.800 121.600 C 50.800 120.690,49.797 120.510,49.470 121.361 M210.800 125.800 C 210.800 126.130,211.070 126.400,211.400 126.400 C 211.730 126.400,212.000 126.130,212.000 125.800 C 212.000 125.470,211.730 125.200,211.400 125.200 C 211.070 125.200,210.800 125.470,210.800 125.800 M214.800 127.171 C 214.800 127.743,215.057 128.000,215.629 128.000 C 216.202 128.000,216.417 127.785,216.325 127.305 C 216.124 126.262,214.800 126.146,214.800 127.171 M46.900 129.465 C 46.097 129.789,46.325 130.800,47.200 130.800 C 47.733 130.800,48.000 130.533,48.000 130.000 C 48.000 129.192,47.808 129.098,46.900 129.465 M223.600 131.633 C 223.600 132.608,224.535 132.470,224.729 131.467 C 224.806 131.072,224.602 130.800,224.229 130.800 C 223.858 130.800,223.600 131.142,223.600 131.633 M233.600 136.938 C 233.600 137.615,233.817 138.000,234.200 138.000 C 234.530 138.000,234.800 138.270,234.800 138.600 C 234.800 139.022,235.226 139.200,236.237 139.200 C 237.338 139.200,237.724 139.387,237.884 140.000 C 238.041 140.601,238.430 140.800,239.447 140.800 C 240.337 140.800,240.800 140.991,240.800 141.357 C 240.800 141.664,241.070 142.018,241.400 142.145 C 241.730 142.271,242.000 142.651,242.000 142.987 C 242.000 143.333,242.348 143.600,242.800 143.600 C 243.333 143.600,243.600 143.867,243.600 144.400 C 243.600 144.844,243.867 145.200,244.200 145.200 C 244.530 145.200,244.800 145.470,244.800 145.800 C 244.800 146.133,245.156 146.400,245.600 146.400 C 246.133 146.400,246.400 146.667,246.400 147.200 C 246.400 147.640,246.625 148.003,246.900 148.007 C 247.486 148.015,249.200 149.731,249.200 150.310 C 249.200 150.528,249.560 150.801,250.000 150.916 C 250.440 151.031,250.800 151.412,250.800 151.763 C 250.800 152.113,251.070 152.400,251.400 152.400 C 251.819 152.400,252.000 152.822,252.000 153.800 C 252.000 154.791,252.179 155.200,252.613 155.200 C 252.949 155.200,253.329 155.470,253.455 155.800 C 253.589 156.148,254.187 156.400,254.880 156.400 C 255.738 156.400,256.134 156.625,256.284 157.200 C 256.399 157.640,256.643 158.000,256.826 158.000 C 257.714 158.000,259.200 159.969,259.200 161.146 C 259.200 161.879,259.408 162.403,259.700 162.407 C 260.310 162.415,262.000 164.142,262.000 164.756 C 262.000 165.000,262.225 165.203,262.500 165.207 C 263.086 165.215,264.800 166.931,264.800 167.510 C 264.800 167.728,265.160 168.001,265.600 168.116 C 266.183 168.268,266.400 168.662,266.400 169.563 C 266.400 170.349,266.601 170.800,266.953 170.800 C 267.258 170.800,267.601 171.160,267.716 171.600 C 267.831 172.040,268.167 172.400,268.463 172.400 C 268.911 172.400,268.979 186.452,268.873 257.444 L 268.746 342.488 260.590 350.644 C 255.873 355.361,252.122 358.800,251.695 358.800 C 251.289 358.800,250.346 359.430,249.600 360.200 C 248.854 360.970,247.895 361.600,247.470 361.600 C 247.045 361.600,245.746 362.590,244.583 363.800 C 243.199 365.241,242.145 366.000,241.531 366.000 C 241.015 366.000,240.368 366.360,240.093 366.800 C 239.808 367.257,239.160 367.600,238.584 367.600 C 238.029 367.600,237.471 367.870,237.345 368.200 C 237.190 368.603,236.557 368.800,235.419 368.800 C 234.232 368.800,233.507 369.040,233.000 369.600 C 232.523 370.127,231.768 370.400,230.787 370.400 C 229.951 370.400,229.079 370.663,228.800 371.000 C 228.526 371.330,227.880 371.600,227.365 371.600 C 226.838 371.600,226.241 371.950,226.000 372.400 C 225.628 373.095,225.162 373.200,222.448 373.200 C 219.832 373.200,219.206 373.330,218.600 374.000 C 217.467 375.252,181.179 375.252,180.107 374.000 C 179.563 373.364,178.927 373.200,177.009 373.200 C 174.740 373.200,174.526 373.116,173.428 371.800 C 172.346 370.502,172.096 370.400,169.992 370.400 C 168.232 370.400,167.562 370.221,167.000 369.600 C 166.602 369.160,165.848 368.800,165.325 368.800 C 164.803 368.800,164.271 368.530,164.145 368.200 C 164.018 367.870,163.512 367.600,163.019 367.600 C 162.527 367.600,161.798 367.240,161.400 366.800 C 161.002 366.360,160.248 366.000,159.725 366.000 C 159.203 366.000,158.671 365.730,158.545 365.400 C 158.418 365.070,157.891 364.800,157.373 364.800 C 156.805 364.800,155.802 364.165,154.847 363.200 C 153.976 362.320,152.924 361.600,152.510 361.600 C 152.096 361.600,151.146 360.970,150.400 360.200 C 149.654 359.430,148.672 358.800,148.219 358.800 C 147.765 358.800,146.829 358.184,146.138 357.430 C 145.396 356.623,144.413 356.007,143.740 355.930 C 142.779 355.820,142.580 355.596,142.475 354.500 C 142.406 353.785,142.178 353.200,141.969 353.200 C 141.760 353.200,140.694 352.300,139.600 351.200 C 138.091 349.683,137.320 349.200,136.405 349.200 C 135.211 349.200,135.200 349.180,135.200 347.000 C 135.200 345.067,135.103 344.800,134.400 344.800 C 133.758 344.800,133.600 344.533,133.600 343.447 C 133.600 342.401,133.406 342.043,132.745 341.870 C 131.985 341.671,131.914 341.440,132.102 339.774 C 132.282 338.174,132.203 337.874,131.556 337.704 C 130.818 337.511,130.800 335.752,130.800 263.730 C 130.800 214.647,130.666 190.036,130.400 190.200 C 129.493 190.760,129.890 354.976,130.800 355.800 C 131.469 356.405,131.600 357.032,131.600 359.619 C 131.600 362.002,131.738 362.767,132.200 362.945 C 132.530 363.071,132.800 363.603,132.800 364.125 C 132.800 364.648,133.160 365.402,133.600 365.800 C 134.040 366.198,134.400 366.927,134.400 367.419 C 134.400 367.912,134.670 368.418,135.000 368.545 C 135.397 368.697,135.600 369.324,135.600 370.397 C 135.600 372.175,145.450 382.800,147.098 382.800 C 147.496 382.800,149.072 384.060,150.600 385.600 C 152.394 387.408,153.696 388.400,154.275 388.400 C 154.768 388.400,155.365 388.760,155.600 389.200 C 155.838 389.646,156.438 390.000,156.952 390.000 C 157.460 390.000,158.202 390.360,158.600 390.800 C 158.998 391.240,159.752 391.600,160.275 391.600 C 160.797 391.600,161.329 391.870,161.455 392.200 C 161.582 392.530,162.163 392.800,162.747 392.800 C 163.374 392.800,164.012 393.127,164.307 393.600 C 164.582 394.040,165.220 394.400,165.725 394.400 C 166.249 394.400,167.225 395.001,168.000 395.800 C 168.788 396.613,169.749 397.200,170.291 397.200 C 170.805 397.200,171.329 397.470,171.455 397.800 C 171.613 398.210,172.254 398.400,173.480 398.400 C 174.938 398.400,175.314 398.550,175.484 399.200 C 175.691 399.992,176.030 400.000,211.400 400.000 C 246.770 400.000,247.109 399.992,247.316 399.200 C 247.454 398.672,247.862 398.400,248.514 398.400 C 249.057 398.400,249.726 398.130,250.000 397.800 C 250.274 397.470,250.881 397.194,251.349 397.187 C 251.817 397.180,252.821 396.550,253.581 395.787 C 254.340 395.024,255.287 394.400,255.685 394.400 C 256.082 394.400,256.716 394.040,257.093 393.600 C 257.470 393.160,258.166 392.800,258.640 392.800 C 259.114 392.800,259.726 392.530,260.000 392.200 C 260.274 391.870,260.838 391.600,261.253 391.600 C 261.668 391.600,262.316 391.240,262.693 390.800 C 263.070 390.360,263.749 390.000,264.203 390.000 C 264.672 390.000,265.963 389.053,267.200 387.800 C 268.395 386.590,269.709 385.600,270.119 385.600 C 271.131 385.600,277.096 379.548,277.266 378.350 C 277.357 377.704,277.704 377.357,278.350 377.266 C 279.554 377.095,285.600 371.129,285.600 370.111 C 285.600 369.696,286.230 368.746,287.000 368.000 C 287.790 367.234,288.400 366.248,288.400 365.736 C 288.400 365.237,288.760 364.635,289.200 364.400 C 289.979 363.983,290.000 363.562,290.000 348.675 C 290.000 333.873,290.026 333.356,290.800 332.693 C 291.594 332.013,291.600 331.513,291.600 262.007 C 291.600 192.440,291.595 192.004,290.800 191.507 C 290.139 191.094,290.000 190.574,290.000 188.518 C 290.000 186.438,289.868 185.958,289.200 185.600 C 288.760 185.365,288.400 184.766,288.400 184.271 C 288.400 183.719,287.625 182.607,286.400 181.400 C 285.300 180.317,284.400 179.098,284.400 178.693 C 284.400 177.688,279.547 172.904,278.358 172.735 C 277.697 172.642,277.357 172.298,277.263 171.626 C 277.177 171.023,275.466 169.015,272.763 166.345 C 270.363 163.976,268.400 161.711,268.400 161.311 C 268.400 160.359,260.804 152.800,259.847 152.800 C 259.441 152.800,257.530 151.180,255.600 149.200 C 253.501 147.046,251.771 145.600,251.295 145.600 C 250.856 145.600,250.274 145.330,250.000 145.000 C 249.726 144.670,249.080 144.400,248.565 144.400 C 248.038 144.400,247.441 144.050,247.200 143.600 C 246.959 143.150,246.362 142.800,245.835 142.800 C 245.320 142.800,244.674 142.530,244.400 142.200 C 244.126 141.870,243.476 141.600,242.954 141.600 C 242.433 141.600,241.782 141.240,241.507 140.800 C 241.232 140.360,240.595 140.000,240.091 140.000 C 239.556 140.000,238.642 139.418,237.890 138.600 C 237.184 137.830,236.258 137.200,235.834 137.200 C 235.410 137.200,234.734 136.902,234.331 136.538 C 233.640 135.912,233.600 135.934,233.600 136.938 " stroke="none" fill="#040404" fill-rule="evenodd"></path><path id="path2" d="" stroke="none" fill="#bc10080" fill-rule="evenodd"></path><path id="path3" d="" stroke="none" fill="#bc10080" fill-rule="evenodd"></path><path id="path4" d="" stroke="none" fill="#bc10080" fill-rule="evenodd"></path></g></svg>