<svg id="svg" version="1.1" xmlns="http://www.w3.org/2000/svg" xmlns:xlink="http://www.w3.org/1999/xlink" width="400" height="300" viewBox="0, 0, 400,300"><g id="svgg"><path id="path0" d="" stroke="none" fill="#cc8c2c" fill-rule="evenodd"></path><path id="path1" d="M239.760 69.625 C 239.512 69.768,238.837 69.960,238.260 70.052 C 236.410 70.345,234.359 72.713,234.359 74.554 C 234.359 74.975,234.243 75.319,234.102 75.319 C 233.961 75.319,234.047 76.332,234.294 77.569 C 234.540 78.807,234.858 79.820,235.000 79.820 C 235.142 79.820,235.259 80.023,235.259 80.270 C 235.259 80.518,235.378 80.720,235.524 80.720 C 235.670 80.720,235.868 80.956,235.965 81.245 C 236.186 81.902,236.742 82.754,237.471 83.555 C 239.571 85.857,242.761 90.662,242.761 91.521 C 242.761 91.857,242.879 92.366,243.023 92.652 C 243.168 92.939,243.530 93.983,243.828 94.974 C 244.127 95.964,244.456 96.909,244.561 97.074 C 244.666 97.239,245.012 98.218,245.331 99.250 C 245.650 100.281,246.013 101.125,246.136 101.125 C 246.260 101.125,246.362 101.341,246.362 101.604 C 246.362 102.134,247.282 103.918,247.637 104.076 C 247.761 104.131,247.862 104.365,247.862 104.597 C 247.862 105.222,249.513 107.789,250.425 108.582 C 251.236 109.287,251.290 110.464,250.578 111.890 C 250.207 112.632,249.362 116.278,249.362 117.136 C 249.362 117.553,249.227 117.978,249.062 118.080 C 248.897 118.182,248.760 118.966,248.758 119.823 C 248.755 120.679,248.652 121.538,248.530 121.731 C 248.222 122.214,248.718 130.608,249.075 130.965 C 249.233 131.123,249.362 131.628,249.362 132.087 C 249.362 133.593,251.572 138.650,252.861 140.094 C 255.556 143.114,255.863 143.269,258.772 143.084 C 261.654 142.901,262.761 141.496,263.087 137.611 C 263.184 136.459,263.437 135.179,263.650 134.768 L 264.038 134.021 264.368 134.903 C 265.759 138.616,269.807 143.632,273.918 146.737 C 274.465 147.149,275.564 148.095,276.361 148.837 C 279.230 151.511,279.720 151.873,280.346 151.781 C 281.487 151.612,281.231 150.994,279.164 148.927 C 277.187 146.951,275.169 144.697,275.169 144.466 C 275.169 144.250,273.216 141.484,272.993 141.385 C 272.869 141.330,272.768 141.094,272.768 140.860 C 272.768 140.626,272.633 140.435,272.468 140.435 C 272.303 140.435,272.168 140.242,272.168 140.006 C 272.168 139.771,271.999 139.397,271.793 139.176 C 271.459 138.818,270.963 137.991,269.940 136.084 C 269.762 135.754,269.550 135.416,269.467 135.334 C 269.181 135.047,266.767 129.967,266.767 129.651 C 266.767 129.476,266.632 129.332,266.467 129.332 C 266.302 129.332,266.167 129.109,266.167 128.837 C 266.167 128.565,265.842 127.653,265.445 126.812 C 265.048 125.970,264.641 124.914,264.541 124.465 C 264.441 124.016,264.085 123.502,263.750 123.322 C 263.108 122.978,263.225 122.885,260.919 125.581 C 260.496 126.077,260.071 126.785,259.975 127.157 C 259.879 127.528,259.680 127.832,259.532 127.832 C 259.385 127.832,259.265 128.075,259.265 128.372 C 259.265 128.669,259.118 129.059,258.939 129.238 C 258.760 129.417,258.539 130.393,258.447 131.407 C 258.355 132.421,258.164 133.322,258.022 133.410 C 257.880 133.497,257.763 134.135,257.761 134.826 C 257.759 135.518,257.675 136.584,257.574 137.195 L 257.390 138.307 256.584 137.495 C 255.727 136.634,254.764 134.910,254.764 134.237 C 254.764 134.015,254.655 133.833,254.523 133.833 C 254.278 133.833,253.786 132.022,253.217 129.032 C 252.745 126.549,252.564 120.910,252.944 120.530 C 253.120 120.354,253.263 119.756,253.263 119.201 C 253.263 117.886,254.193 114.807,255.138 112.994 C 256.213 110.932,255.774 107.689,254.189 105.990 C 253.529 105.282,252.688 104.168,252.321 103.514 C 251.953 102.861,251.542 102.326,251.408 102.326 C 251.273 102.326,251.163 102.177,251.163 101.996 C 251.163 101.682,250.502 100.030,249.958 98.987 C 249.818 98.718,249.611 98.008,249.499 97.408 C 249.386 96.808,249.175 96.243,249.028 96.153 C 248.882 96.063,248.762 95.725,248.762 95.402 C 248.762 95.079,248.644 94.581,248.499 94.295 C 248.355 94.008,247.988 92.963,247.683 91.973 C 247.379 90.983,246.958 89.835,246.748 89.422 C 246.537 89.010,246.364 88.503,246.363 88.297 C 246.362 88.091,246.227 87.922,246.062 87.922 C 245.896 87.922,245.761 87.784,245.761 87.616 C 245.761 87.166,243.307 83.421,243.012 83.421 C 242.874 83.421,242.761 83.251,242.761 83.043 C 242.761 82.835,242.423 82.300,242.011 81.855 C 241.598 81.411,241.260 80.967,241.260 80.870 C 241.260 80.773,240.923 80.330,240.510 79.885 C 239.089 78.353,238.233 75.545,238.964 74.814 C 239.333 74.446,241.692 74.667,242.635 75.158 C 243.117 75.410,243.803 75.616,244.161 75.617 C 244.519 75.618,244.856 75.720,244.911 75.844 C 245.069 76.199,246.853 77.119,247.383 77.119 C 247.646 77.119,247.862 77.233,247.862 77.372 C 247.862 77.511,248.368 77.882,248.987 78.197 C 249.606 78.512,250.383 79.051,250.713 79.395 C 252.313 81.064,252.896 81.245,257.391 81.477 C 259.742 81.598,261.665 81.815,261.665 81.959 C 261.665 82.103,261.920 82.221,262.231 82.221 C 262.542 82.221,263.184 82.422,263.657 82.669 C 264.129 82.915,264.741 83.118,265.016 83.119 C 265.291 83.120,265.561 83.222,265.616 83.346 C 265.774 83.700,267.559 84.621,268.088 84.621 C 268.352 84.621,268.567 84.756,268.567 84.921 C 268.567 85.086,268.770 85.221,269.017 85.221 C 269.265 85.221,269.467 85.346,269.467 85.498 C 269.467 85.649,269.872 85.863,270.368 85.971 C 270.863 86.080,271.268 86.272,271.268 86.398 C 271.268 86.524,271.740 86.882,272.318 87.193 C 272.896 87.504,273.368 87.863,273.368 87.990 C 273.368 88.118,273.513 88.222,273.690 88.222 C 273.867 88.222,274.200 88.391,274.430 88.597 C 275.331 89.406,275.751 89.722,275.921 89.722 C 276.018 89.722,276.395 90.029,276.759 90.403 C 277.122 90.778,277.892 91.438,278.470 91.871 C 279.702 92.796,283.691 96.756,284.771 98.127 C 285.184 98.652,285.893 99.487,286.347 99.985 C 286.800 100.482,287.172 101.014,287.172 101.168 C 287.172 101.321,287.443 101.746,287.774 102.111 C 288.763 103.201,289.872 104.650,289.872 104.850 C 289.872 104.953,290.548 106.126,291.373 107.457 C 292.199 108.787,292.956 110.204,293.057 110.605 C 293.157 111.006,293.360 111.408,293.507 111.498 C 293.653 111.589,293.773 111.925,293.773 112.246 C 293.773 112.566,293.908 112.828,294.074 112.828 C 294.239 112.828,294.374 113.114,294.374 113.463 C 294.374 113.812,294.698 114.723,295.095 115.488 C 295.492 116.253,296.066 117.520,296.370 118.303 C 296.675 119.087,297.026 119.728,297.149 119.729 C 297.273 119.729,297.374 119.879,297.374 120.062 C 297.374 120.366,297.993 121.771,299.951 125.911 C 300.349 126.753,300.675 127.597,300.675 127.787 C 300.675 127.977,300.810 128.132,300.975 128.132 C 301.140 128.132,301.275 128.299,301.275 128.503 C 301.275 128.974,302.851 132.150,303.151 132.283 C 303.275 132.338,303.376 132.515,303.376 132.676 C 303.376 133.358,305.316 135.302,306.473 135.779 C 307.163 136.063,307.934 136.400,308.187 136.527 C 308.440 136.654,309.115 136.850,309.687 136.964 C 310.731 137.170,310.997 137.265,313.024 138.154 C 313.626 138.418,314.403 138.635,314.749 138.635 C 315.095 138.635,315.379 138.770,315.379 138.935 C 315.379 139.100,315.517 139.235,315.686 139.235 C 316.062 139.235,319.809 141.568,320.608 142.300 C 320.926 142.591,321.432 142.907,321.733 143.003 C 322.034 143.098,322.281 143.302,322.281 143.456 C 322.281 143.610,322.483 143.736,322.731 143.736 C 322.978 143.736,323.183 143.837,323.185 143.961 C 323.188 144.085,323.995 144.659,324.978 145.236 C 326.783 146.296,327.661 147.261,326.480 146.886 C 326.151 146.782,325.881 146.814,325.881 146.959 C 325.881 147.104,324.634 147.258,323.109 147.302 C 321.585 147.346,320.201 147.488,320.034 147.618 C 319.867 147.748,319.091 147.937,318.311 148.039 C 317.531 148.141,316.653 148.346,316.361 148.495 C 315.373 149.000,314.333 149.390,313.467 149.579 C 311.824 149.938,311.432 150.806,312.226 152.329 C 312.473 152.802,312.675 153.395,312.676 153.647 C 312.677 153.900,312.948 154.301,313.278 154.539 C 313.608 154.777,313.878 155.122,313.878 155.305 C 313.878 155.489,314.250 155.991,314.704 156.421 C 315.158 156.850,315.691 157.379,315.890 157.596 C 316.374 158.125,316.625 158.318,319.580 160.437 C 321.841 162.059,323.741 163.092,327.007 164.475 C 327.543 164.702,327.982 164.990,327.982 165.115 C 327.982 165.239,328.139 165.341,328.331 165.341 C 328.725 165.341,331.483 167.056,332.194 167.742 C 332.450 167.989,333.033 168.462,333.490 168.792 C 333.947 169.122,334.726 169.749,335.220 170.185 C 336.299 171.136,337.284 171.028,337.284 169.957 C 337.284 169.564,337.149 169.242,336.984 169.242 C 336.819 169.242,336.684 169.004,336.684 168.713 C 336.684 167.588,327.695 158.478,326.557 158.449 C 326.350 158.444,326.182 158.326,326.182 158.187 C 326.182 158.048,325.675 157.676,325.056 157.362 C 324.437 157.047,323.863 156.722,323.781 156.639 C 323.698 156.557,323.158 156.227,322.581 155.906 C 322.003 155.585,321.355 155.149,321.141 154.937 C 320.926 154.725,320.466 154.352,320.118 154.109 C 319.305 153.539,319.854 152.738,321.057 152.738 C 321.499 152.738,321.995 152.604,322.158 152.440 C 322.322 152.276,323.666 151.996,325.144 151.818 C 329.547 151.286,330.225 151.175,330.383 150.958 C 330.465 150.844,331.208 150.624,332.033 150.469 C 333.646 150.166,334.294 148.837,333.328 147.816 C 333.111 147.587,332.596 146.963,332.183 146.430 C 331.004 144.906,329.206 143.205,326.801 141.335 C 326.270 140.923,325.475 140.281,325.034 139.910 C 324.592 139.539,324.139 139.235,324.027 139.235 C 323.915 139.235,323.642 139.053,323.421 138.832 C 323.199 138.610,322.416 138.049,321.680 137.584 C 320.945 137.120,320.162 136.559,319.940 136.337 C 319.718 136.115,319.269 135.934,318.941 135.934 C 318.613 135.934,318.428 135.799,318.530 135.634 C 318.632 135.469,318.505 135.334,318.247 135.334 C 317.990 135.334,317.779 135.199,317.779 135.034 C 317.779 134.869,317.630 134.734,317.447 134.734 C 317.143 134.734,315.739 134.115,311.598 132.157 C 310.756 131.759,309.894 131.433,309.681 131.433 C 308.943 131.433,301.275 116.632,301.275 115.207 C 301.275 115.054,301.140 114.929,300.975 114.929 C 300.810 114.929,300.674 114.692,300.673 114.404 C 300.672 114.115,300.470 113.492,300.223 113.019 C 299.977 112.546,299.775 111.972,299.775 111.744 C 299.775 111.515,299.640 111.328,299.475 111.328 C 299.310 111.328,299.175 111.016,299.175 110.635 C 299.175 110.254,298.977 109.680,298.734 109.360 C 298.492 109.039,298.289 108.552,298.284 108.277 C 298.279 108.002,298.173 107.732,298.050 107.677 C 297.926 107.622,297.556 107.037,297.229 106.377 C 296.901 105.716,296.192 104.536,295.653 103.754 C 295.115 102.972,294.674 102.242,294.674 102.131 C 294.674 101.948,292.345 98.772,291.956 98.425 C 291.864 98.342,291.568 97.952,291.298 97.558 C 289.594 95.065,282.142 87.608,280.360 86.610 C 280.067 86.446,279.564 86.066,279.242 85.767 C 278.920 85.467,278.553 85.221,278.427 85.221 C 278.300 85.221,277.879 84.917,277.490 84.546 C 277.102 84.175,276.522 83.709,276.201 83.510 C 267.309 78.002,267.867 78.320,267.089 78.320 C 266.766 78.320,266.428 78.200,266.338 78.054 C 266.248 77.908,265.531 77.693,264.745 77.576 C 263.959 77.459,263.181 77.256,263.016 77.126 C 262.673 76.855,260.731 76.556,257.434 76.266 C 256.145 76.153,254.907 75.871,254.587 75.617 C 254.276 75.371,253.885 75.065,253.717 74.938 C 253.550 74.811,253.008 74.368,252.513 73.955 C 252.018 73.541,251.309 73.124,250.938 73.028 C 250.566 72.932,250.263 72.766,250.263 72.659 C 250.263 72.476,249.835 72.269,247.262 71.202 C 246.684 70.963,245.953 70.629,245.638 70.460 C 245.322 70.290,244.276 70.080,243.312 69.993 C 242.349 69.906,241.560 69.747,241.560 69.641 C 241.560 69.344,240.265 69.332,239.760 69.625 M254.507 87.234 C 254.218 87.750,255.465 89.979,256.354 90.537 C 256.562 90.666,256.996 91.380,257.319 92.123 C 258.436 94.691,259.622 95.171,260.452 93.393 C 260.663 92.942,260.954 92.339,261.100 92.052 C 262.184 89.921,259.441 86.722,256.529 86.722 C 255.205 86.722,254.726 86.843,254.507 87.234 M69.794 156.596 C 69.706 156.738,68.966 156.933,68.149 157.030 C 66.715 157.199,65.710 157.605,64.908 158.338 C 64.698 158.529,64.423 158.732,64.296 158.788 C 64.170 158.844,63.762 159.476,63.391 160.193 L 62.716 161.497 62.716 180.824 L 62.716 200.150 67.664 200.150 L 72.613 200.150 72.691 183.421 C 72.778 164.579,72.532 166.030,74.786 171.043 C 76.126 174.025,76.661 175.198,77.797 177.644 C 78.372 178.882,79.080 180.435,79.371 181.095 C 79.662 181.755,80.140 182.836,80.434 183.496 C 80.728 184.156,81.250 185.330,81.595 186.105 C 81.939 186.880,82.221 187.656,82.221 187.830 C 82.221 188.005,82.356 188.147,82.521 188.147 C 82.686 188.147,82.821 188.417,82.821 188.747 C 82.821 189.077,82.941 189.347,83.088 189.347 C 83.235 189.347,83.441 189.689,83.546 190.106 C 83.651 190.523,84.070 191.594,84.479 192.487 C 84.887 193.380,85.221 194.254,85.221 194.429 C 85.221 194.605,85.323 194.749,85.446 194.750 C 85.570 194.750,85.927 195.372,86.239 196.130 C 86.980 197.932,88.846 199.771,90.188 200.023 C 90.761 200.130,91.303 200.338,91.394 200.484 C 91.606 200.828,97.438 200.833,97.650 200.490 C 97.739 200.346,98.321 200.142,98.943 200.035 C 100.710 199.733,103.430 196.619,104.015 194.229 C 104.127 193.772,104.306 193.331,104.413 193.248 C 104.666 193.053,105.626 190.987,105.626 190.637 C 105.626 190.193,106.360 188.752,106.588 188.750 C 106.704 188.748,106.888 188.275,106.997 187.697 C 107.105 187.119,107.314 186.647,107.460 186.647 C 107.607 186.647,107.727 186.385,107.727 186.064 C 107.727 185.744,107.852 185.405,108.004 185.311 C 108.156 185.216,108.370 184.736,108.478 184.243 C 108.586 183.749,108.799 183.346,108.951 183.346 C 109.103 183.346,109.227 183.084,109.227 182.763 C 109.227 182.443,109.352 182.104,109.504 182.010 C 109.657 181.916,109.870 181.435,109.978 180.942 C 110.087 180.449,110.300 180.045,110.451 180.045 C 110.603 180.045,110.728 179.841,110.728 179.591 C 110.728 179.341,110.856 178.902,111.012 178.616 C 111.812 177.153,113.128 174.049,113.128 173.626 C 113.128 173.360,113.230 173.143,113.355 173.143 C 113.480 173.143,113.767 172.704,113.993 172.168 C 114.219 171.632,114.589 170.801,114.816 170.321 C 115.043 169.842,115.229 169.268,115.229 169.046 C 115.229 168.824,115.344 168.642,115.485 168.642 C 115.627 168.642,115.883 168.203,116.055 167.667 C 116.281 166.963,116.376 171.350,116.398 183.421 L 116.429 200.150 121.530 200.150 L 126.632 200.150 126.632 181.133 C 126.632 158.626,126.800 159.990,123.770 157.914 C 121.254 156.191,112.657 155.913,111.328 157.512 C 111.245 157.612,110.671 158.070,110.053 158.532 C 109.434 158.993,108.927 159.536,108.927 159.739 C 108.927 159.942,108.662 160.299,108.338 160.532 C 108.014 160.766,107.666 161.334,107.565 161.795 C 107.464 162.256,107.256 162.711,107.104 162.805 C 106.951 162.899,106.827 163.295,106.827 163.684 C 106.827 164.073,106.725 164.436,106.602 164.491 C 106.293 164.628,105.326 166.759,105.326 167.302 C 105.326 167.544,105.202 167.742,105.050 167.742 C 104.898 167.742,104.685 168.145,104.577 168.639 C 104.469 169.132,104.255 169.613,104.103 169.707 C 103.951 169.801,103.826 170.140,103.826 170.460 C 103.826 170.781,103.719 171.043,103.588 171.043 C 103.457 171.043,103.098 171.785,102.789 172.693 C 102.481 173.601,102.115 174.344,101.977 174.344 C 101.839 174.344,101.725 174.533,101.725 174.764 C 101.725 174.996,101.185 176.327,100.525 177.723 C 99.865 179.118,99.325 180.414,99.325 180.603 C 99.325 180.791,99.190 180.945,99.025 180.945 C 98.860 180.945,98.725 181.138,98.725 181.374 C 98.725 181.610,98.320 182.679,97.824 183.749 C 97.329 184.818,96.924 185.840,96.924 186.020 C 96.924 186.200,96.789 186.347,96.624 186.347 C 96.459 186.347,96.324 186.534,96.324 186.762 C 96.324 186.991,96.122 187.565,95.876 188.038 C 95.629 188.510,95.427 189.134,95.426 189.422 C 95.425 189.711,95.315 189.947,95.182 189.947 C 95.049 189.947,94.793 190.319,94.613 190.773 C 94.313 191.533,94.285 191.545,94.255 190.923 C 94.238 190.551,94.089 190.248,93.923 190.248 C 93.758 190.248,93.623 190.032,93.623 189.768 C 93.623 189.292,92.759 187.235,92.437 186.947 C 92.346 186.864,92.013 186.020,91.698 185.071 C 91.383 184.122,91.012 183.346,90.874 183.346 C 90.736 183.346,90.622 183.110,90.621 182.821 C 90.621 182.532,90.302 181.668,89.912 180.900 C 89.523 180.133,88.956 178.816,88.654 177.974 C 88.351 177.133,87.995 176.444,87.863 176.444 C 87.730 176.444,87.621 176.208,87.620 175.919 C 87.619 175.630,87.416 175.007,87.170 174.534 C 86.923 174.062,86.722 173.488,86.722 173.259 C 86.722 173.030,86.593 172.843,86.435 172.843 C 86.278 172.843,86.060 172.369,85.951 171.790 C 85.842 171.210,85.634 170.662,85.487 170.572 C 85.341 170.481,85.221 170.145,85.221 169.825 C 85.221 169.504,85.097 169.242,84.945 169.242 C 84.793 169.242,84.580 168.839,84.472 168.346 C 84.364 167.852,84.150 167.372,83.998 167.278 C 83.846 167.183,83.721 166.844,83.721 166.524 C 83.721 166.204,83.586 165.941,83.421 165.941 C 83.256 165.941,83.121 165.726,83.121 165.463 C 83.121 164.825,81.081 160.531,80.460 159.861 C 78.933 158.214,77.673 157.246,76.819 157.063 C 76.407 156.975,75.835 156.776,75.548 156.621 C 74.896 156.268,70.010 156.247,69.794 156.596 M133.135 170.266 C 132.525 171.855,132.927 193.248,133.567 193.248 C 133.713 193.248,133.833 193.429,133.833 193.650 C 133.833 194.215,135.406 196.225,135.859 196.238 C 136.065 196.244,136.234 196.375,136.234 196.529 C 136.234 196.683,136.538 196.904,136.909 197.019 C 137.281 197.135,137.652 197.313,137.734 197.415 C 138.079 197.838,139.823 198.650,140.389 198.650 C 140.725 198.650,141.083 198.785,141.185 198.950 C 141.287 199.115,141.827 199.250,142.386 199.250 C 142.944 199.250,143.484 199.385,143.586 199.550 C 143.704 199.742,147.940 199.850,155.307 199.850 L 166.842 199.850 166.842 201.748 C 166.842 205.492,166.513 205.558,147.852 205.541 C 140.131 205.534,133.683 205.609,133.523 205.708 C 133.364 205.806,133.233 207.432,133.233 209.320 L 133.233 212.753 149.737 212.753 C 158.815 212.753,166.242 212.637,166.242 212.496 C 166.242 212.354,167.086 212.150,168.117 212.043 C 169.149 211.935,170.038 211.713,170.093 211.550 C 170.148 211.387,170.373 211.253,170.593 211.253 C 170.970 211.253,172.814 210.384,173.143 210.051 C 173.226 209.967,173.809 209.515,174.438 209.045 C 175.068 208.576,175.521 208.129,175.445 208.053 C 175.369 207.977,175.630 207.566,176.025 207.139 C 176.421 206.713,176.744 206.122,176.744 205.825 C 176.744 205.529,176.879 205.203,177.044 205.101 C 177.239 204.981,177.344 198.747,177.344 187.379 L 177.344 169.842 172.281 169.842 L 167.217 169.842 167.029 170.780 C 166.926 171.296,166.842 176.571,166.842 182.503 L 166.842 193.289 156.055 193.194 L 145.269 193.098 144.202 192.064 L 143.136 191.030 143.136 180.436 L 143.136 169.842 138.217 169.842 C 134.260 169.842,133.266 169.925,133.135 170.266 " stroke="none" fill="#04648c" fill-rule="evenodd"></path><path id="path2" d="M192.500 157.537 C 192.397 157.703,191.983 157.839,191.580 157.839 C 191.177 157.839,190.848 157.974,190.848 158.140 C 190.848 158.305,190.564 158.440,190.218 158.440 C 189.544 158.440,187.606 159.265,187.075 159.779 C 186.897 159.950,186.325 160.428,185.802 160.840 C 185.279 161.253,184.850 161.759,184.849 161.965 C 184.847 162.172,184.743 162.341,184.617 162.341 C 183.418 162.341,182.694 175.378,183.871 175.769 C 184.077 175.838,184.246 176.028,184.246 176.193 C 184.246 176.635,186.615 178.900,186.896 178.726 C 187.029 178.644,187.327 178.840,187.558 179.161 C 187.790 179.482,188.152 179.745,188.363 179.745 C 188.574 179.745,188.747 179.865,188.747 180.011 C 188.747 180.157,189.355 180.368,190.098 180.479 C 190.840 180.591,191.448 180.795,191.448 180.932 C 191.448 181.389,193.913 181.577,202.795 181.800 C 207.779 181.925,211.680 182.146,211.797 182.308 C 211.910 182.466,212.408 182.829,212.903 183.113 C 213.398 183.398,213.770 183.769,213.728 183.938 C 213.687 184.108,213.788 184.246,213.953 184.246 C 214.134 184.246,214.254 185.496,214.254 187.397 C 214.254 189.130,214.134 190.548,213.988 190.548 C 213.843 190.548,213.659 190.794,213.580 191.095 C 213.134 192.800,211.812 192.948,197.035 192.948 C 184.888 192.948,183.390 193.000,183.228 193.423 C 182.955 194.135,183.018 199.341,183.305 199.794 C 183.663 200.358,215.190 200.192,215.379 199.625 C 215.448 199.419,215.822 199.250,216.211 199.250 C 216.600 199.250,216.993 199.130,217.083 198.984 C 217.174 198.837,217.722 198.629,218.301 198.520 C 218.881 198.411,219.355 198.226,219.355 198.109 C 219.355 197.992,219.775 197.710,220.288 197.483 C 221.282 197.043,222.856 195.450,222.731 195.012 C 222.689 194.867,222.794 194.782,222.963 194.824 C 223.322 194.911,223.939 193.852,224.419 192.327 C 224.814 191.071,224.879 182.446,224.494 182.446 C 224.349 182.446,224.148 182.031,224.047 181.525 C 223.858 180.578,221.345 177.944,220.631 177.944 C 220.424 177.944,220.255 177.841,220.255 177.715 C 220.255 177.436,218.027 176.444,217.398 176.444 C 217.150 176.444,216.712 176.326,216.425 176.181 C 214.890 175.406,213.300 175.258,206.002 175.213 C 196.279 175.154,195.917 175.115,194.761 174.011 L 193.848 173.138 193.848 169.362 C 193.848 165.838,193.889 165.575,194.449 165.428 C 194.779 165.342,195.049 165.152,195.049 165.006 C 195.049 164.860,195.494 164.741,196.039 164.741 C 196.584 164.741,197.163 164.608,197.326 164.444 C 197.511 164.259,202.774 164.118,211.265 164.069 L 224.906 163.991 224.906 160.690 L 224.906 157.389 208.797 157.312 C 198.205 157.261,192.623 157.338,192.500 157.537 M239.760 157.539 C 239.512 157.699,238.871 157.832,238.335 157.835 C 237.798 157.837,237.359 157.959,237.359 158.105 C 237.359 158.252,236.752 158.463,236.009 158.574 C 235.266 158.685,234.659 158.903,234.659 159.058 C 234.659 159.213,234.514 159.340,234.337 159.340 C 233.877 159.340,233.149 160.131,233.388 160.370 C 233.499 160.481,233.392 160.501,233.149 160.414 C 232.427 160.157,229.857 162.910,229.857 163.941 C 229.857 164.197,229.722 164.489,229.557 164.591 C 229.364 164.710,229.257 169.690,229.257 178.545 C 229.257 187.400,229.364 192.379,229.557 192.498 C 229.722 192.600,229.857 193.004,229.857 193.395 C 229.857 193.786,230.060 194.308,230.308 194.556 C 230.555 194.803,230.758 195.109,230.758 195.234 C 230.758 195.640,233.178 197.668,234.310 198.211 C 234.914 198.501,235.643 198.853,235.930 198.994 C 236.216 199.135,236.712 199.250,237.030 199.250 C 237.349 199.250,237.666 199.419,237.734 199.625 C 237.921 200.186,259.255 200.347,259.608 199.790 C 259.798 199.490,259.857 199.487,259.860 199.775 C 259.863 199.981,260.036 200.150,260.245 200.150 C 260.454 200.150,261.267 200.764,262.050 201.515 C 262.912 202.341,263.622 202.796,263.846 202.667 C 264.049 202.550,264.123 202.558,264.009 202.685 C 263.807 202.909,264.115 203.407,264.905 204.140 C 265.119 204.339,265.592 204.797,265.956 205.159 C 267.116 206.314,271.034 206.726,278.395 206.465 C 278.601 206.458,278.770 206.164,278.770 205.812 C 278.770 205.109,277.651 203.965,277.223 204.230 C 277.075 204.321,276.991 204.284,277.036 204.148 C 277.140 203.833,272.587 199.370,271.493 198.714 C 270.656 198.213,270.410 197.749,270.980 197.749 C 272.542 197.749,275.169 193.922,275.169 191.645 C 275.169 190.896,275.304 190.200,275.469 190.098 C 275.989 189.776,275.864 168.342,275.335 167.076 C 275.096 166.504,274.973 165.757,275.062 165.417 C 275.593 163.386,271.301 159.040,268.288 158.558 C 267.622 158.452,267.151 158.246,267.240 158.102 C 267.329 157.958,266.854 157.839,266.184 157.839 C 265.514 157.839,264.966 157.704,264.966 157.539 C 264.966 157.137,240.382 157.137,239.760 157.539 M279.847 157.726 C 279.529 158.555,279.658 191.148,279.980 191.148 C 280.139 191.148,280.270 191.401,280.270 191.711 C 280.270 192.449,281.100 194.422,281.636 194.957 C 281.868 195.189,282.162 195.541,282.289 195.741 C 282.620 196.258,284.671 197.749,285.051 197.749 C 285.227 197.749,285.371 197.883,285.371 198.046 C 285.371 198.209,285.911 198.429,286.572 198.534 C 287.232 198.640,287.772 198.844,287.772 198.988 C 287.772 199.132,288.233 199.250,288.797 199.250 C 289.361 199.250,289.879 199.419,289.947 199.625 C 290.045 199.919,293.455 200.000,305.651 200.000 L 321.230 200.000 321.230 196.549 L 321.230 193.098 307.727 193.026 C 298.329 192.976,293.995 192.849,293.473 192.609 C 291.228 191.576,290.773 191.268,290.773 190.779 C 290.773 190.487,290.638 190.248,290.473 190.248 C 290.276 190.248,290.173 184.546,290.173 173.743 L 290.173 157.239 285.103 157.239 C 280.704 157.239,280.010 157.304,279.847 157.726 M262.866 165.041 C 262.866 165.206,263.093 165.341,263.372 165.341 C 263.985 165.341,265.266 166.492,265.266 167.044 C 265.266 167.263,265.401 167.442,265.566 167.442 C 265.761 167.442,265.866 171.358,265.866 178.591 L 265.866 189.741 265.101 190.744 C 264.072 192.094,263.972 192.050,260.407 188.665 C 259.925 188.208,259.382 187.925,259.201 188.036 C 259.020 188.148,258.956 188.103,259.059 187.937 C 259.779 186.772,258.061 186.377,252.270 186.375 C 245.740 186.373,245.387 186.524,247.537 188.398 C 248.231 189.003,249.630 190.274,250.647 191.223 L 252.497 192.948 248.125 192.948 C 243.370 192.948,242.592 192.754,241.247 191.232 L 240.510 190.398 240.420 179.295 C 240.313 166.016,240.245 166.574,242.090 165.547 L 243.511 164.756 253.188 164.748 C 259.445 164.744,262.866 164.847,262.866 165.041 M322.463 193.423 C 321.974 194.697,322.428 195.349,323.805 195.349 C 324.325 195.349,324.381 195.583,324.381 197.731 L 324.381 200.112 325.581 200.096 L 326.782 200.079 326.782 197.734 C 326.782 195.399,326.785 195.388,327.607 195.294 C 328.323 195.211,328.444 195.050,328.525 194.074 L 328.618 192.948 325.632 192.948 C 323.185 192.948,322.612 193.034,322.463 193.423 M328.882 196.533 L 328.882 200.150 330.058 200.150 C 330.704 200.150,331.312 199.981,331.408 199.775 C 331.548 199.475,331.618 199.475,331.758 199.775 C 331.981 200.253,333.450 200.263,333.923 199.790 C 334.182 199.532,334.284 199.527,334.284 199.771 C 334.284 199.972,334.777 200.106,335.484 200.096 L 336.684 200.079 336.684 196.514 L 336.684 192.948 335.227 192.948 C 333.842 192.948,333.757 192.996,333.491 193.921 C 333.111 195.246,332.388 195.325,332.023 194.083 C 331.754 193.169,331.630 193.092,330.308 193.007 L 328.882 192.915 328.882 196.533 " stroke="none" fill="#cd8c24" fill-rule="evenodd"></path><path id="path3" d="M248.252 124.531 C 248.252 125.439,248.308 125.810,248.377 125.356 C 248.446 124.902,248.446 124.160,248.377 123.706 C 248.308 123.252,248.252 123.623,248.252 124.531 M132.744 185.446 C 132.744 187.179,132.794 187.888,132.854 187.022 C 132.915 186.155,132.915 184.737,132.854 183.871 C 132.794 183.005,132.744 183.713,132.744 185.446 M141.281 205.476 C 145.295 205.523,151.776 205.523,155.685 205.476 C 159.593 205.429,156.309 205.390,148.387 205.390 C 140.465 205.390,137.267 205.429,141.281 205.476 " stroke="none" fill="#3c7858" fill-rule="evenodd"></path><path id="path4" d="M116.269 183.196 C 116.269 192.273,116.307 196.030,116.354 191.544 C 116.401 187.058,116.401 179.632,116.354 175.040 C 116.307 170.448,116.269 174.119,116.269 183.196 " stroke="none" fill="#047890" fill-rule="evenodd"></path></g></svg>